G04 Layer_Color=16711935*
%FSLAX25Y25*%
%MOIN*%
G70*
G01*
G75*
%ADD22O,0.06693X0.10630*%
%ADD48C,0.06800*%
%ADD72R,0.04800X0.05800*%
%ADD73R,0.05800X0.04800*%
%ADD78O,0.05131X0.07296*%
%ADD79C,0.06600*%
%ADD80C,0.11800*%
%ADD81C,0.08675*%
%ADD82C,0.10300*%
%ADD83C,0.04600*%
%ADD84C,0.05800*%
%ADD85C,0.08674*%
%ADD86C,0.04400*%
%ADD87C,0.09658*%
%ADD88R,0.02057X0.06506*%
%ADD89R,0.06902X0.03162*%
%ADD90R,0.03162X0.05918*%
%ADD91R,0.08674X0.22453*%
%ADD92R,0.07001X0.03359*%
%ADD93O,0.06509X0.02572*%
%ADD94R,0.06509X0.02572*%
%ADD95C,0.02800*%
D22*
X319020Y14997D02*
D03*
X290280D02*
D03*
D48*
X428500Y268000D02*
D03*
Y258000D02*
D03*
Y248000D02*
D03*
Y238000D02*
D03*
Y228000D02*
D03*
Y218000D02*
D03*
Y208000D02*
D03*
Y198000D02*
D03*
Y188000D02*
D03*
X312500Y268000D02*
D03*
Y188000D02*
D03*
X519000Y246000D02*
D03*
Y236000D02*
D03*
Y226000D02*
D03*
Y216000D02*
D03*
X589000Y256000D02*
D03*
Y246000D02*
D03*
Y236000D02*
D03*
Y226000D02*
D03*
Y216000D02*
D03*
Y206000D02*
D03*
X584000Y273500D02*
D03*
Y188500D02*
D03*
X524000Y273500D02*
D03*
Y188500D02*
D03*
D72*
X380350Y263900D02*
D03*
X372350D02*
D03*
X379400Y210400D02*
D03*
X371400D02*
D03*
X346650Y253400D02*
D03*
X354650D02*
D03*
X344800Y199950D02*
D03*
X352800D02*
D03*
X129500Y288500D02*
D03*
X137500D02*
D03*
X129500Y251500D02*
D03*
X137500D02*
D03*
X179000Y230000D02*
D03*
X187000D02*
D03*
X223000D02*
D03*
X231000D02*
D03*
X185000Y312000D02*
D03*
X177000D02*
D03*
X390700Y17300D02*
D03*
X382700D02*
D03*
X533100Y137200D02*
D03*
X525100D02*
D03*
X533100Y144300D02*
D03*
X525100D02*
D03*
X525600Y17200D02*
D03*
X517600D02*
D03*
X398600Y145000D02*
D03*
X390600D02*
D03*
X398600Y137500D02*
D03*
X390600D02*
D03*
X500650Y342050D02*
D03*
X508650D02*
D03*
X66000Y415700D02*
D03*
X58000D02*
D03*
X42500D02*
D03*
X34500D02*
D03*
X317000Y246600D02*
D03*
X325000D02*
D03*
X299900Y353750D02*
D03*
X291900D02*
D03*
X304400Y333750D02*
D03*
X312400D02*
D03*
X444350Y238000D02*
D03*
X452350D02*
D03*
X444350Y228000D02*
D03*
X452350D02*
D03*
X524500Y432050D02*
D03*
X516500D02*
D03*
X248700Y386900D02*
D03*
X256700D02*
D03*
X332350Y341000D02*
D03*
X324350D02*
D03*
X524250Y423550D02*
D03*
X516250D02*
D03*
X556600Y120400D02*
D03*
X548600D02*
D03*
X420700Y119800D02*
D03*
X412700D02*
D03*
D73*
X657500Y380000D02*
D03*
Y388000D02*
D03*
X559550Y333200D02*
D03*
Y341200D02*
D03*
X559450Y370200D02*
D03*
Y362200D02*
D03*
X354750Y237300D02*
D03*
Y245300D02*
D03*
X352750Y183950D02*
D03*
Y191950D02*
D03*
X214500Y283100D02*
D03*
Y291100D02*
D03*
X247950Y293000D02*
D03*
Y301000D02*
D03*
X541500Y368450D02*
D03*
Y360450D02*
D03*
X185300Y259800D02*
D03*
Y251800D02*
D03*
X185400Y280500D02*
D03*
Y272500D02*
D03*
X673500Y409500D02*
D03*
Y417500D02*
D03*
X684500Y409500D02*
D03*
Y417500D02*
D03*
X638300Y331900D02*
D03*
Y323900D02*
D03*
X230150Y364750D02*
D03*
Y356750D02*
D03*
X218900Y374350D02*
D03*
Y366350D02*
D03*
X239200Y374400D02*
D03*
Y366400D02*
D03*
X337250Y307800D02*
D03*
Y299800D02*
D03*
X23900Y373600D02*
D03*
Y381600D02*
D03*
X31750Y373600D02*
D03*
Y381600D02*
D03*
X39550Y373500D02*
D03*
Y381500D02*
D03*
X47400Y373500D02*
D03*
Y381500D02*
D03*
X28100Y94950D02*
D03*
Y102950D02*
D03*
X661650Y94100D02*
D03*
Y102100D02*
D03*
X40100Y27300D02*
D03*
Y19300D02*
D03*
X637800Y26250D02*
D03*
Y18250D02*
D03*
X147600Y203200D02*
D03*
Y211200D02*
D03*
X167950Y201200D02*
D03*
Y209200D02*
D03*
X182350Y201250D02*
D03*
Y209250D02*
D03*
X196600Y201150D02*
D03*
Y209150D02*
D03*
X191200Y144000D02*
D03*
Y152000D02*
D03*
X178450Y144000D02*
D03*
Y152000D02*
D03*
X164550Y144000D02*
D03*
Y152000D02*
D03*
X151550Y144000D02*
D03*
Y152000D02*
D03*
D78*
X298351Y35962D02*
D03*
X304650D02*
D03*
X310949D02*
D03*
X301500Y29072D02*
D03*
X307800D02*
D03*
D79*
X652000Y133500D02*
D03*
Y143500D02*
D03*
Y153500D02*
D03*
X662000Y133500D02*
D03*
Y143500D02*
D03*
Y153500D02*
D03*
X48000D02*
D03*
Y143500D02*
D03*
Y133500D02*
D03*
X38000Y153500D02*
D03*
Y143500D02*
D03*
Y133500D02*
D03*
X226500Y437000D02*
D03*
X236500D02*
D03*
X272500D02*
D03*
X282500D02*
D03*
X88500D02*
D03*
X98500D02*
D03*
X42500D02*
D03*
X52500D02*
D03*
X38000Y315500D02*
D03*
Y305500D02*
D03*
Y295500D02*
D03*
Y285500D02*
D03*
Y275500D02*
D03*
X48000Y234500D02*
D03*
Y224500D02*
D03*
X38000Y234500D02*
D03*
Y224500D02*
D03*
Y194500D02*
D03*
Y204500D02*
D03*
Y214500D02*
D03*
X48000Y194500D02*
D03*
Y204500D02*
D03*
Y214500D02*
D03*
X662000Y275500D02*
D03*
Y285500D02*
D03*
Y295500D02*
D03*
Y305500D02*
D03*
Y315500D02*
D03*
X652000Y194500D02*
D03*
Y204500D02*
D03*
X662000Y194500D02*
D03*
Y204500D02*
D03*
Y234500D02*
D03*
Y224500D02*
D03*
Y214500D02*
D03*
X652000Y234500D02*
D03*
Y224500D02*
D03*
Y214500D02*
D03*
X134500Y437000D02*
D03*
X144500D02*
D03*
X180500D02*
D03*
X190500D02*
D03*
D80*
X16250Y18750D02*
D03*
X678750D02*
D03*
X16250Y456250D02*
D03*
X678750D02*
D03*
D81*
X506500Y17200D02*
D03*
X536500D02*
D03*
X566500D02*
D03*
X521500Y127200D02*
D03*
X536500D02*
D03*
X371750Y17200D02*
D03*
X401750D02*
D03*
X431750D02*
D03*
X386750Y127200D02*
D03*
X401750D02*
D03*
D82*
X506500D02*
D03*
X566500D02*
D03*
X371750D02*
D03*
X431750D02*
D03*
D83*
X409250Y437050D02*
D03*
Y432050D02*
D03*
Y427050D02*
D03*
X439250Y437050D02*
D03*
Y432050D02*
D03*
Y427050D02*
D03*
X469250Y437050D02*
D03*
Y432050D02*
D03*
Y427050D02*
D03*
X499250Y437050D02*
D03*
Y432050D02*
D03*
Y427050D02*
D03*
X326300D02*
D03*
Y417050D02*
D03*
Y422050D02*
D03*
Y432050D02*
D03*
Y437050D02*
D03*
X321300D02*
D03*
Y432050D02*
D03*
Y422050D02*
D03*
Y417050D02*
D03*
Y427050D02*
D03*
X671850Y357500D02*
D03*
X666850D02*
D03*
X661850D02*
D03*
X368800Y427050D02*
D03*
Y417050D02*
D03*
Y422050D02*
D03*
Y432050D02*
D03*
Y437050D02*
D03*
X363800D02*
D03*
Y432050D02*
D03*
Y422050D02*
D03*
Y417050D02*
D03*
Y427050D02*
D03*
X28150Y76250D02*
D03*
X33150D02*
D03*
X38150D02*
D03*
X28150Y46250D02*
D03*
X33150D02*
D03*
X38150D02*
D03*
X661650Y76250D02*
D03*
X656650D02*
D03*
X651650D02*
D03*
X661650Y46250D02*
D03*
X656650D02*
D03*
X651650D02*
D03*
X566750Y437050D02*
D03*
Y427050D02*
D03*
Y422050D02*
D03*
Y432050D02*
D03*
X596750Y437050D02*
D03*
Y427050D02*
D03*
Y422050D02*
D03*
Y432050D02*
D03*
X626750Y437050D02*
D03*
Y427050D02*
D03*
Y422050D02*
D03*
Y432050D02*
D03*
X656750Y437050D02*
D03*
Y427050D02*
D03*
Y422050D02*
D03*
Y432050D02*
D03*
X28150Y357500D02*
D03*
X33150D02*
D03*
X43150D02*
D03*
X53150D02*
D03*
X48150D02*
D03*
X38150D02*
D03*
X536750Y437050D02*
D03*
Y432050D02*
D03*
Y427050D02*
D03*
D84*
X409250Y447250D02*
D03*
Y416850D02*
D03*
X439250Y447250D02*
D03*
Y416850D02*
D03*
X469250Y447250D02*
D03*
Y416850D02*
D03*
X499250Y447250D02*
D03*
Y416850D02*
D03*
X323800Y447250D02*
D03*
Y406850D02*
D03*
X682050Y357500D02*
D03*
X651650D02*
D03*
X366300Y447250D02*
D03*
Y406850D02*
D03*
X17950Y76250D02*
D03*
X48350D02*
D03*
X17950Y46250D02*
D03*
X48350D02*
D03*
X671850Y76250D02*
D03*
X641450D02*
D03*
X671850Y46250D02*
D03*
X641450D02*
D03*
X566750Y447250D02*
D03*
Y411850D02*
D03*
X596750Y447250D02*
D03*
Y411850D02*
D03*
X626750Y447250D02*
D03*
Y411850D02*
D03*
X656750Y447250D02*
D03*
Y411850D02*
D03*
X63350Y357500D02*
D03*
X18150D02*
D03*
X536750Y447250D02*
D03*
Y416850D02*
D03*
X331850Y212450D02*
D03*
X349050Y265100D02*
D03*
X347500Y307800D02*
D03*
X357900Y325450D02*
D03*
X342750Y346100D02*
D03*
X312750Y230100D02*
D03*
X444350Y218650D02*
D03*
Y247200D02*
D03*
D85*
X227000Y106000D02*
D03*
Y119400D02*
D03*
X174000D02*
D03*
Y106000D02*
D03*
D86*
X220150Y386900D02*
D03*
Y391900D02*
D03*
X225150Y386900D02*
D03*
Y391900D02*
D03*
X230150Y386900D02*
D03*
Y391900D02*
D03*
X235150Y386900D02*
D03*
Y391900D02*
D03*
X240150Y386900D02*
D03*
Y391900D02*
D03*
D87*
X160000Y46500D02*
D03*
X143504D02*
D03*
X248250D02*
D03*
X231754D02*
D03*
D88*
X326668Y388732D02*
D03*
X324109D02*
D03*
X321550D02*
D03*
X318991D02*
D03*
X316432D02*
D03*
X313873D02*
D03*
X331786Y364500D02*
D03*
X329227D02*
D03*
X326668D02*
D03*
X324109D02*
D03*
X321550D02*
D03*
X318991D02*
D03*
X316432D02*
D03*
X313873D02*
D03*
X331786Y388732D02*
D03*
X329227D02*
D03*
X432100Y387300D02*
D03*
X429541D02*
D03*
X426982D02*
D03*
X424423D02*
D03*
X421864D02*
D03*
X419305D02*
D03*
X437218Y363069D02*
D03*
X434659D02*
D03*
X432100D02*
D03*
X429541D02*
D03*
X426982D02*
D03*
X424423D02*
D03*
X421864D02*
D03*
X419305D02*
D03*
X437218Y387300D02*
D03*
X434659D02*
D03*
X370168Y389000D02*
D03*
X367609D02*
D03*
X365050D02*
D03*
X362491D02*
D03*
X359932D02*
D03*
X357373D02*
D03*
X375286Y364769D02*
D03*
X372727D02*
D03*
X370168D02*
D03*
X367609D02*
D03*
X365050D02*
D03*
X362491D02*
D03*
X359932D02*
D03*
X357373D02*
D03*
X375286Y389000D02*
D03*
X372727D02*
D03*
D89*
X494650Y332550D02*
D03*
Y327550D02*
D03*
Y322550D02*
D03*
Y317550D02*
D03*
Y312550D02*
D03*
Y307550D02*
D03*
Y302550D02*
D03*
X515910D02*
D03*
Y307550D02*
D03*
Y312550D02*
D03*
Y327550D02*
D03*
Y332550D02*
D03*
Y317550D02*
D03*
Y322550D02*
D03*
D90*
X671500Y376193D02*
D03*
X676500D02*
D03*
X681500D02*
D03*
Y394500D02*
D03*
X676500D02*
D03*
X671500D02*
D03*
X666500D02*
D03*
Y376193D02*
D03*
D91*
X579950Y370200D02*
D03*
Y332798D02*
D03*
X154000Y251098D02*
D03*
Y288500D02*
D03*
D92*
X388150Y240350D02*
D03*
Y245350D02*
D03*
Y250350D02*
D03*
Y255350D02*
D03*
X365414Y240350D02*
D03*
Y245350D02*
D03*
Y250350D02*
D03*
Y255350D02*
D03*
X387036Y187000D02*
D03*
Y192000D02*
D03*
Y197000D02*
D03*
Y202000D02*
D03*
X364300Y187000D02*
D03*
Y192000D02*
D03*
Y197000D02*
D03*
Y202000D02*
D03*
D93*
X628900Y352345D02*
D03*
Y349786D02*
D03*
Y347227D02*
D03*
Y344668D02*
D03*
Y342109D02*
D03*
Y339550D02*
D03*
Y336991D02*
D03*
Y334432D02*
D03*
Y331873D02*
D03*
Y329314D02*
D03*
X605672Y352345D02*
D03*
Y349786D02*
D03*
Y347227D02*
D03*
Y344668D02*
D03*
Y342109D02*
D03*
Y339550D02*
D03*
Y336991D02*
D03*
Y334432D02*
D03*
Y331873D02*
D03*
D94*
Y329314D02*
D03*
D95*
X276000Y274000D02*
D03*
X284100Y271200D02*
D03*
X252000Y282150D02*
D03*
X248300Y284900D02*
D03*
X253850Y286900D02*
D03*
X260750Y289150D02*
D03*
X289900Y264100D02*
D03*
X296200Y267400D02*
D03*
X394750Y242900D02*
D03*
X379350Y215950D02*
D03*
X371400Y215850D02*
D03*
X395300Y199350D02*
D03*
X395200Y189650D02*
D03*
X447650Y378600D02*
D03*
X409200Y380800D02*
D03*
X77400Y257700D02*
D03*
X71600Y259600D02*
D03*
X52600Y279200D02*
D03*
X61200Y252500D02*
D03*
X61100Y259500D02*
D03*
X181000Y235500D02*
D03*
X61100Y256200D02*
D03*
X153900Y270700D02*
D03*
X154000Y273300D02*
D03*
X429600Y357700D02*
D03*
X490150Y342550D02*
D03*
X129500Y271000D02*
D03*
X227500Y291000D02*
D03*
X394650Y252850D02*
D03*
X380350Y269950D02*
D03*
X372200Y269850D02*
D03*
X673500Y422500D02*
D03*
X684500D02*
D03*
X228500Y236000D02*
D03*
X239000Y293000D02*
D03*
Y297000D02*
D03*
X210000Y160000D02*
D03*
X22500Y415700D02*
D03*
X452850Y357200D02*
D03*
X453450Y392200D02*
D03*
X403650Y356350D02*
D03*
Y394550D02*
D03*
X559450Y351700D02*
D03*
X523150Y342550D02*
D03*
X657500Y375300D02*
D03*
X652000Y388000D02*
D03*
X676500Y400000D02*
D03*
X225000Y236000D02*
D03*
X184500Y235500D02*
D03*
X176900Y348900D02*
D03*
X181746Y306254D02*
D03*
X178500Y306500D02*
D03*
X36050Y389800D02*
D03*
X367000Y359200D02*
D03*
X363750Y370650D02*
D03*
X124300Y395100D02*
D03*
X335450Y364400D02*
D03*
X324100Y370500D02*
D03*
X236650Y396700D02*
D03*
X523650Y302450D02*
D03*
X486950Y302750D02*
D03*
X173100Y370100D02*
D03*
X176900Y359800D02*
D03*
X178900Y278100D02*
D03*
X178800Y274800D02*
D03*
X167100Y284500D02*
D03*
X179300Y254500D02*
D03*
Y257900D02*
D03*
X172500Y315300D02*
D03*
X432600Y369200D02*
D03*
X419300Y368800D02*
D03*
X317750Y370550D02*
D03*
X379800Y364550D02*
D03*
X358650Y370750D02*
D03*
X510850Y423550D02*
D03*
X511600Y432000D02*
D03*
X214700Y277700D02*
D03*
X224950Y396500D02*
D03*
X219000Y360900D02*
D03*
X239250Y360800D02*
D03*
X635700Y366900D02*
D03*
X605550Y356450D02*
D03*
X646450Y323900D02*
D03*
X681500Y386150D02*
D03*
X230150Y351450D02*
D03*
X201450Y335250D02*
D03*
X215750Y307800D02*
D03*
X221650Y313800D02*
D03*
X185700Y246600D02*
D03*
X367550Y331050D02*
D03*
X341750D02*
D03*
X330100Y246600D02*
D03*
X337250Y294550D02*
D03*
X361900Y317450D02*
D03*
X319400Y341000D02*
D03*
X193550Y313650D02*
D03*
X218700Y310800D02*
D03*
X196400Y319350D02*
D03*
X285850Y353750D02*
D03*
X385950Y381600D02*
D03*
X390400Y377750D02*
D03*
X385950Y317500D02*
D03*
X390400Y317850D02*
D03*
X437200Y356250D02*
D03*
X530350Y358200D02*
D03*
X527750Y361800D02*
D03*
X541500Y352150D02*
D03*
X541600Y375500D02*
D03*
X263600Y386900D02*
D03*
X596250Y377800D02*
D03*
X606050Y380500D02*
D03*
X505600Y375400D02*
D03*
X628550Y170500D02*
D03*
X258050Y241450D02*
D03*
X266650Y238050D02*
D03*
X619500Y184750D02*
D03*
X287850Y229250D02*
D03*
X282400Y224150D02*
D03*
X279650Y221600D02*
D03*
X222800Y215250D02*
D03*
X157900Y195500D02*
D03*
X167950D02*
D03*
X177950D02*
D03*
X187950D02*
D03*
X178000Y175600D02*
D03*
X187950Y159000D02*
D03*
X177950D02*
D03*
X167950D02*
D03*
X157900D02*
D03*
X28100Y108850D02*
D03*
X40100Y13300D02*
D03*
X661650Y109700D02*
D03*
X637800Y12600D02*
D03*
X180500Y216100D02*
D03*
M02*
