G04 Layer_Color=16711935*
%FSLAX25Y25*%
%MOIN*%
G70*
G01*
G75*
%ADD20C,0.01000*%
%ADD61C,0.00500*%
%ADD97C,0.00394*%
%ADD98C,0.00197*%
D20*
X331196Y369923D02*
X330457Y370349D01*
Y369497D01*
X331196Y369923D01*
X436627Y368491D02*
X435889Y368917D01*
Y368065D01*
X436627Y368491D01*
X374696Y370191D02*
X373957Y370618D01*
Y369765D01*
X374696Y370191D01*
X668000Y161500D02*
X700000D01*
X668000Y125500D02*
Y161500D01*
Y125500D02*
X700000D01*
Y161500D01*
X0Y125500D02*
X32000D01*
Y161500D01*
X0D02*
X32000D01*
X0Y125500D02*
Y161500D01*
X491500Y137200D02*
X581500D01*
Y7200D02*
Y137200D01*
X491500Y12200D02*
X496500Y7200D01*
X491500Y12200D02*
Y137200D01*
X496500Y7200D02*
X581500D01*
X356750Y137200D02*
X446750D01*
Y7200D02*
Y137200D01*
X356750Y12200D02*
X361750Y7200D01*
X356750Y12200D02*
Y137200D01*
X361750Y7200D02*
X446750D01*
X218500Y475000D02*
X244500D01*
Y443000D02*
Y475000D01*
X218500Y443000D02*
X244500D01*
X218500D02*
Y475000D01*
X264500D02*
X290500D01*
Y443000D02*
Y475000D01*
X264500Y443000D02*
X290500D01*
X264500D02*
Y475000D01*
X80500D02*
X106500D01*
Y443000D02*
Y475000D01*
X80500Y443000D02*
X106500D01*
X80500D02*
Y475000D01*
X400500Y449200D02*
X404000Y452700D01*
X400500Y411400D02*
Y449200D01*
Y411400D02*
X418000D01*
Y449200D01*
X414500Y452700D02*
X418000Y449200D01*
X404000Y452700D02*
X414500D01*
X430500Y449200D02*
X434000Y452700D01*
X430500Y411400D02*
Y449200D01*
Y411400D02*
X448000D01*
Y449200D01*
X444500Y452700D02*
X448000Y449200D01*
X434000Y452700D02*
X444500D01*
X460500Y449200D02*
X464000Y452700D01*
X460500Y411400D02*
Y449200D01*
Y411400D02*
X478000D01*
Y449200D01*
X474500Y452700D02*
X478000Y449200D01*
X464000Y452700D02*
X474500D01*
X490500Y449200D02*
X494000Y452700D01*
X490500Y411400D02*
Y449200D01*
Y411400D02*
X508000D01*
Y449200D01*
X504500Y452700D02*
X508000Y449200D01*
X494000Y452700D02*
X504500D01*
X312987Y367954D02*
Y385277D01*
X332672D01*
Y367954D02*
Y385277D01*
X312987Y367954D02*
X332672D01*
X315050Y449200D02*
X318550Y452700D01*
X315050Y401400D02*
Y449200D01*
Y401400D02*
X332550D01*
Y449200D01*
X329050Y452700D02*
X332550Y449200D01*
X318550Y452700D02*
X329050D01*
X34500Y475000D02*
X60500D01*
Y443000D02*
Y475000D01*
X34500Y443000D02*
X60500D01*
X34500D02*
Y475000D01*
X418419Y366523D02*
Y383846D01*
X438104D01*
Y366523D02*
Y383846D01*
X418419Y366523D02*
X438104D01*
X570501Y376499D02*
X589399D01*
Y326499D02*
Y376499D01*
X570501Y326499D02*
X589399D01*
X570501D02*
Y376499D01*
X684000Y366250D02*
X687500Y362750D01*
X646200Y366250D02*
X684000D01*
X646200Y348750D02*
Y366250D01*
Y348750D02*
X684000D01*
X687500Y352250D01*
Y362750D01*
X369154Y257515D02*
X384508D01*
X369154Y238224D02*
Y257515D01*
Y238224D02*
X384508D01*
Y257515D01*
X368040Y204165D02*
X383395D01*
X368040Y184874D02*
Y204165D01*
Y184874D02*
X383395D01*
Y204165D01*
X356487Y368223D02*
Y385546D01*
X376172D01*
Y368223D02*
Y385546D01*
X356487Y368223D02*
X376172D01*
X357550Y449200D02*
X361050Y452700D01*
X357550Y401400D02*
Y449200D01*
Y401400D02*
X375050D01*
Y449200D01*
X371550Y452700D02*
X375050Y449200D01*
X361050Y452700D02*
X371550D01*
X12500Y71000D02*
X16000Y67500D01*
X53800D01*
Y85000D01*
X16000D02*
X53800D01*
X12500Y81500D02*
X16000Y85000D01*
X12500Y71000D02*
Y81500D01*
Y41000D02*
X16000Y37500D01*
X53800D01*
Y55000D01*
X16000D02*
X53800D01*
X12500Y51500D02*
X16000Y55000D01*
X12500Y41000D02*
Y51500D01*
X673800Y85000D02*
X677300Y81500D01*
X636000Y85000D02*
X673800D01*
X636000Y67500D02*
Y85000D01*
Y67500D02*
X673800D01*
X677300Y71000D01*
Y81500D01*
X673800Y55000D02*
X677300Y51500D01*
X636000Y55000D02*
X673800D01*
X636000Y37500D02*
Y55000D01*
Y37500D02*
X673800D01*
X677300Y41000D01*
Y51500D01*
X558000Y449200D02*
X561500Y452700D01*
X558000Y406400D02*
Y449200D01*
Y406400D02*
X575500D01*
Y449200D01*
X572000Y452700D02*
X575500Y449200D01*
X561500Y452700D02*
X572000D01*
X588000Y449200D02*
X591500Y452700D01*
X588000Y406400D02*
Y449200D01*
Y406400D02*
X605500D01*
Y449200D01*
X602000Y452700D02*
X605500Y449200D01*
X591500Y452700D02*
X602000D01*
X618000Y449200D02*
X621500Y452700D01*
X618000Y406400D02*
Y449200D01*
Y406400D02*
X635500D01*
Y449200D01*
X632000Y452700D02*
X635500Y449200D01*
X621500Y452700D02*
X632000D01*
X648000Y449200D02*
X651500Y452700D01*
X648000Y406400D02*
Y449200D01*
Y406400D02*
X665500D01*
Y449200D01*
X662000Y452700D02*
X665500Y449200D01*
X651500Y452700D02*
X662000D01*
X242650Y382650D02*
Y396150D01*
X240150D02*
X242650D01*
X240150D02*
Y399400D01*
X220150D02*
X240150D01*
X220150Y396150D02*
Y399400D01*
X217650Y396150D02*
X220150D01*
X217650Y382650D02*
Y396150D01*
Y382650D02*
X220150D01*
Y379400D02*
Y382650D01*
Y379400D02*
X240150D01*
Y382650D01*
X242650D01*
X0Y323500D02*
X32000D01*
X0Y267500D02*
X32000D01*
Y323500D01*
X0Y267500D02*
Y323400D01*
Y186500D02*
Y242500D01*
X32000D01*
Y186500D02*
Y242500D01*
X0Y186500D02*
X32000D01*
X668000Y267500D02*
X700000D01*
X668000Y323500D02*
X700000D01*
X668000Y267500D02*
Y323500D01*
X700000Y267600D02*
Y323500D01*
Y186500D02*
Y242500D01*
X668000Y186500D02*
X700000D01*
X668000D02*
Y242500D01*
X700000D01*
X12700Y352250D02*
Y362750D01*
X16200Y366250D01*
X68800D01*
Y348750D02*
Y366250D01*
X16200Y348750D02*
X68800D01*
X12700Y352250D02*
X16200Y348750D01*
X144551Y244799D02*
X163449D01*
X144551D02*
Y294799D01*
X163449D01*
Y244799D02*
Y294799D01*
X528000Y449200D02*
X531500Y452700D01*
X528000Y411400D02*
Y449200D01*
Y411400D02*
X545500D01*
Y449200D01*
X542000Y452700D02*
X545500Y449200D01*
X531500Y452700D02*
X542000D01*
X126500Y475000D02*
X152500D01*
Y443000D02*
Y475000D01*
X126500Y443000D02*
X152500D01*
X126500D02*
Y475000D01*
X172500D02*
X198500D01*
Y443000D02*
Y475000D01*
X172500Y443000D02*
X198500D01*
X172500D02*
Y475000D01*
D61*
X624010Y341390D02*
Y348477D01*
X610624Y341390D02*
Y348477D01*
Y341390D02*
X624010D01*
X610624Y348477D02*
X624010D01*
D97*
X181353Y295316D02*
X181089Y296300D01*
X180368Y297021D01*
X179384Y297284D01*
X178400Y297021D01*
X177680Y296300D01*
X177416Y295316D01*
X177680Y294332D01*
X178400Y293611D01*
X179384Y293347D01*
X180368Y293611D01*
X181089Y294332D01*
X181353Y295316D01*
X203400Y269332D02*
Y273269D01*
X201431Y271300D02*
X205368D01*
X175841Y243741D02*
X230959D01*
X175841Y298859D02*
X230959D01*
Y243741D02*
Y298859D01*
X175841Y243741D02*
Y298859D01*
D98*
X170132Y238032D02*
X236668D01*
X170132Y304568D02*
X236668D01*
Y238032D02*
Y304568D01*
X170132Y238032D02*
Y304568D01*
M02*
