G04 Layer_Physical_Order=6*
G04 Layer_Color=16711680*
%FSLAX25Y25*%
%MOIN*%
G70*
G01*
G75*
%ADD14R,0.04000X0.05000*%
%ADD15R,0.05000X0.04000*%
%ADD20C,0.01000*%
%ADD21O,0.04331X0.06496*%
%ADD22O,0.06693X0.10630*%
%ADD23C,0.06000*%
%ADD24C,0.11000*%
%ADD25C,0.07875*%
%ADD26C,0.09500*%
%ADD27C,0.04000*%
%ADD28C,0.05200*%
%ADD29C,0.07874*%
%ADD30C,0.03800*%
%ADD31C,0.08858*%
%ADD32C,0.02000*%
%ADD33C,0.05000*%
%ADD52R,0.01457X0.05905*%
%ADD53R,0.06102X0.02362*%
%ADD54R,0.02362X0.05118*%
%ADD55R,0.07874X0.21654*%
%ADD56R,0.06201X0.02559*%
%ADD57O,0.05709X0.01772*%
%ADD58R,0.05709X0.01772*%
D14*
X380350Y263900D02*
D03*
X372350D02*
D03*
X379400Y210400D02*
D03*
X371400D02*
D03*
X346650Y253400D02*
D03*
X354650D02*
D03*
X344800Y199950D02*
D03*
X352800D02*
D03*
X129500Y288500D02*
D03*
X137500D02*
D03*
X129500Y251500D02*
D03*
X137500D02*
D03*
X179000Y230000D02*
D03*
X187000D02*
D03*
X223000D02*
D03*
X231000D02*
D03*
X185000Y312000D02*
D03*
X177000D02*
D03*
X390700Y17300D02*
D03*
X382700D02*
D03*
X533100Y137200D02*
D03*
X525100D02*
D03*
X533100Y144300D02*
D03*
X525100D02*
D03*
X525600Y17200D02*
D03*
X517600D02*
D03*
X398600Y145000D02*
D03*
X390600D02*
D03*
X398600Y137500D02*
D03*
X390600D02*
D03*
X500650Y342050D02*
D03*
X508650D02*
D03*
X66000Y415700D02*
D03*
X58000D02*
D03*
X42500D02*
D03*
X34500D02*
D03*
X317000Y246600D02*
D03*
X325000D02*
D03*
X299900Y353750D02*
D03*
X291900D02*
D03*
X304400Y333750D02*
D03*
X312400D02*
D03*
X444350Y238000D02*
D03*
X452350D02*
D03*
X444350Y228000D02*
D03*
X452350D02*
D03*
X524500Y432050D02*
D03*
X516500D02*
D03*
X248700Y386900D02*
D03*
X256700D02*
D03*
X332350Y341000D02*
D03*
X324350D02*
D03*
X524250Y423550D02*
D03*
X516250D02*
D03*
X556600Y120400D02*
D03*
X548600D02*
D03*
X420700Y119800D02*
D03*
X412700D02*
D03*
D15*
X657500Y380000D02*
D03*
Y388000D02*
D03*
X559550Y333200D02*
D03*
Y341200D02*
D03*
X559450Y370200D02*
D03*
Y362200D02*
D03*
X354750Y237300D02*
D03*
Y245300D02*
D03*
X352750Y183950D02*
D03*
Y191950D02*
D03*
X214500Y283100D02*
D03*
Y291100D02*
D03*
X247950Y293000D02*
D03*
Y301000D02*
D03*
X541500Y368450D02*
D03*
Y360450D02*
D03*
X185300Y259800D02*
D03*
Y251800D02*
D03*
X185400Y280500D02*
D03*
Y272500D02*
D03*
X673500Y409500D02*
D03*
Y417500D02*
D03*
X684500Y409500D02*
D03*
Y417500D02*
D03*
X638300Y331900D02*
D03*
Y323900D02*
D03*
X230150Y364750D02*
D03*
Y356750D02*
D03*
X218900Y374350D02*
D03*
Y366350D02*
D03*
X239200Y374400D02*
D03*
Y366400D02*
D03*
X337250Y307800D02*
D03*
Y299800D02*
D03*
X23900Y373600D02*
D03*
Y381600D02*
D03*
X31750Y373600D02*
D03*
Y381600D02*
D03*
X39550Y373500D02*
D03*
Y381500D02*
D03*
X47400Y373500D02*
D03*
Y381500D02*
D03*
X28100Y94950D02*
D03*
Y102950D02*
D03*
X661650Y94100D02*
D03*
Y102100D02*
D03*
X40100Y27300D02*
D03*
Y19300D02*
D03*
X637800Y26250D02*
D03*
Y18250D02*
D03*
X147600Y203200D02*
D03*
Y211200D02*
D03*
X167950Y201200D02*
D03*
Y209200D02*
D03*
X182350Y201250D02*
D03*
Y209250D02*
D03*
X196600Y201150D02*
D03*
Y209150D02*
D03*
X191200Y144000D02*
D03*
Y152000D02*
D03*
X178450Y144000D02*
D03*
Y152000D02*
D03*
X164550Y144000D02*
D03*
Y152000D02*
D03*
X151550Y144000D02*
D03*
Y152000D02*
D03*
D20*
X559450Y341200D02*
Y351700D01*
X41750Y389800D02*
X47400Y384150D01*
Y381500D02*
Y384150D01*
X43150Y363450D02*
X47400Y367700D01*
Y373500D01*
X33150Y357500D02*
Y364600D01*
X31750Y366000D02*
X33150Y364600D01*
X31750Y366000D02*
Y373600D01*
X23900Y367900D02*
Y373600D01*
X38150Y364850D02*
X39550Y366250D01*
Y373500D01*
Y381500D02*
Y386300D01*
X31750Y381600D02*
Y385500D01*
X23900Y381600D02*
Y382850D01*
X43150Y357500D02*
Y363450D01*
X38150Y357500D02*
Y364850D01*
X28150Y357500D02*
Y363650D01*
X23900Y367900D02*
X28150Y363650D01*
X42500Y415700D02*
X58000D01*
X42500D02*
Y437000D01*
X66000Y397500D02*
Y415700D01*
X31750Y385500D02*
X36050Y389800D01*
X23900Y382850D02*
X30850Y389800D01*
X36050D01*
X39550Y386300D01*
X36050Y389800D02*
X41750D01*
X579950Y363750D02*
Y370200D01*
Y363750D02*
X593914Y349786D01*
X605672D01*
X275900Y274000D02*
X276000D01*
X260750Y289150D02*
X275900Y274000D01*
X252000Y282150D02*
X256100D01*
X256150Y282200D01*
X274250Y264100D02*
X289900D01*
X256150Y282200D02*
X274250Y264100D01*
X248300Y284900D02*
X257250D01*
X274500Y267650D01*
X295950D01*
X452350Y228000D02*
Y238000D01*
X428500Y198000D02*
X437900D01*
X452350Y212450D01*
Y228000D01*
X428500D02*
X444350D01*
X428500Y238000D02*
X444350D01*
X295950Y267650D02*
X296200Y267400D01*
X352800Y199950D02*
Y210550D01*
X340300Y223050D02*
X352800Y210550D01*
X340300Y223050D02*
Y262900D01*
X351400Y237300D02*
X354750D01*
X346650Y242050D02*
X351400Y237300D01*
X346650Y242050D02*
Y253400D01*
X415900Y397600D02*
X421864Y391636D01*
Y387300D02*
Y391636D01*
X399950Y387300D02*
X419305D01*
X354650Y253400D02*
Y268250D01*
X420250Y127200D02*
X431750D01*
X409950Y137500D02*
X420250Y127200D01*
X398600Y137500D02*
X409950D01*
X380350Y263900D02*
Y269950D01*
X372200Y269850D02*
X372350Y269700D01*
Y263900D02*
Y269700D01*
Y257700D02*
Y263900D01*
X370000Y255350D02*
X372350Y257700D01*
X365414Y255350D02*
X370000D01*
X380350Y245550D02*
Y263900D01*
X375150Y240350D02*
X380350Y245550D01*
X365414Y240350D02*
X375150D01*
X357700Y250350D02*
X365414D01*
X354650Y253400D02*
X357700Y250350D01*
X361000Y240350D02*
X365414D01*
X357950Y237300D02*
X361000Y240350D01*
X354750Y237300D02*
X357950D01*
X365364Y245300D02*
X365414Y245350D01*
X354750Y245300D02*
X365364D01*
X392200Y240350D02*
X394750Y242900D01*
X388150Y240350D02*
X392200D01*
X392300Y245350D02*
X394750Y242900D01*
X388150Y245350D02*
X392300D01*
X388150Y255350D02*
X392150D01*
X394650Y252850D01*
X388150Y250350D02*
X392150D01*
X394650Y252850D01*
X379350Y210450D02*
X379400Y210400D01*
X379350Y210450D02*
Y215950D01*
X371400Y210400D02*
Y215850D01*
X364300Y187000D02*
X374900D01*
X379400Y191500D01*
Y210400D01*
X392550Y187000D02*
X395200Y189650D01*
X387036Y187000D02*
X392550D01*
X392850Y192000D02*
X395200Y189650D01*
X387036Y192000D02*
X392850D01*
X392950Y197000D02*
X395300Y199350D01*
X387036Y197000D02*
X392950D01*
X392650Y202000D02*
X395300Y199350D01*
X387036Y202000D02*
X392650D01*
X349200Y183950D02*
X352750D01*
X344800Y188350D02*
X349200Y183950D01*
X344800Y188350D02*
Y199950D01*
X355750Y197000D02*
X364300D01*
X352800Y199950D02*
X355750Y197000D01*
X364300Y202000D02*
X368150D01*
X371400Y205250D01*
Y210400D01*
X359850Y187000D02*
X364300D01*
X356800Y183950D02*
X359850Y187000D01*
X352750Y183950D02*
X356800D01*
X364250Y191950D02*
X364300Y192000D01*
X352750Y191950D02*
X364250D01*
X409200Y380800D02*
X422650D01*
X424423Y382573D01*
Y387300D01*
X426982Y381868D02*
Y387300D01*
Y381868D02*
X430250Y378600D01*
X447650D01*
X589000Y236000D02*
X591600D01*
X651200Y235300D02*
X652000Y234500D01*
X38000Y305500D02*
X59900Y283600D01*
Y275200D02*
Y283600D01*
Y275200D02*
X77400Y257700D01*
X41200Y285500D02*
X67100Y259600D01*
X71600D01*
X66000Y397500D02*
X84100Y379400D01*
X38000Y285500D02*
X41200D01*
X38000Y295500D02*
X52600Y280900D01*
Y279200D02*
Y280900D01*
X46200Y252500D02*
X61200D01*
X27100Y215400D02*
X38000Y204500D01*
X27100Y215400D02*
Y248900D01*
X37700Y259500D01*
X61100D01*
X181000Y232000D02*
Y235500D01*
X42000Y248300D02*
X46200Y252500D01*
X42000Y210500D02*
Y248300D01*
Y210500D02*
X48000Y204500D01*
X29100Y233400D02*
Y246900D01*
Y233400D02*
X38000Y224500D01*
X29100Y246900D02*
X38400Y256200D01*
X61100D01*
X153598Y270398D02*
X153900Y270700D01*
X515910Y307550D02*
X516010Y307650D01*
X515910Y332550D02*
X523150Y339790D01*
X490150Y337050D02*
X494650Y332550D01*
X490150Y337050D02*
Y342550D01*
X523150Y339790D02*
Y342550D01*
X490150D02*
X490650Y342050D01*
X401750Y17200D02*
Y17250D01*
X129500Y251500D02*
Y271000D01*
Y288500D01*
X681500Y400500D02*
X684500Y403500D01*
Y409500D01*
X666500Y394500D02*
Y398500D01*
X673500Y405500D02*
Y409500D01*
X684500Y417500D02*
Y422500D01*
X673500Y417500D02*
Y422500D01*
X651000Y394500D02*
X666500D01*
X671850Y357500D02*
Y368350D01*
X676500Y373000D01*
Y376193D01*
X661850Y357500D02*
Y363350D01*
X671500Y373000D01*
Y376193D01*
X313050Y428800D02*
X321300Y437050D01*
X313050Y401015D02*
Y428800D01*
Y401015D02*
X313873Y400192D01*
Y388732D02*
Y400192D01*
X316432Y388732D02*
Y399754D01*
X314550Y401636D02*
X316432Y399754D01*
X314550Y401636D02*
Y425300D01*
X321300Y432050D01*
Y426984D02*
Y427050D01*
X316050Y421734D02*
X321300Y426984D01*
X316050Y402257D02*
Y421734D01*
Y402257D02*
X318991Y399316D01*
Y388732D02*
Y399316D01*
X317550Y418300D02*
X321300Y422050D01*
X317550Y402879D02*
Y418300D01*
Y402879D02*
X321550Y398879D01*
Y388732D02*
Y398879D01*
X324109Y388732D02*
Y398441D01*
X319050Y403500D02*
X324109Y398441D01*
X319050Y403500D02*
Y414800D01*
X321300Y417050D01*
X326668Y388732D02*
Y395618D01*
X328550Y397500D01*
Y412000D01*
X326300Y414250D02*
X328550Y412000D01*
X326300Y414250D02*
Y417050D01*
X329227Y388732D02*
Y395177D01*
X330550Y396500D01*
Y419000D01*
X327500Y422050D02*
X330550Y419000D01*
X327500Y427050D02*
X332550Y422000D01*
Y389495D02*
Y422000D01*
X331786Y388732D02*
X332550Y389495D01*
X326300Y422050D02*
X327500D01*
X326300Y427050D02*
X327500D01*
X356050Y429300D02*
X363800Y437050D01*
X356050Y400015D02*
Y429300D01*
Y400015D02*
X357373Y398692D01*
Y389000D02*
Y398692D01*
X357550Y425800D02*
X363800Y432050D01*
X357550Y400636D02*
Y425800D01*
Y400636D02*
X359932Y398254D01*
Y389000D02*
Y398254D01*
X362491Y389000D02*
Y397816D01*
X359050Y401257D02*
X362491Y397816D01*
X359050Y401257D02*
Y421543D01*
X362557Y425050D01*
X363800D02*
Y427050D01*
X360550Y418800D02*
X363800Y422050D01*
X360550Y401879D02*
Y418800D01*
Y401879D02*
X365050Y397379D01*
Y389000D02*
Y397379D01*
X367609Y389000D02*
Y396941D01*
X362050Y402500D02*
X367609Y396941D01*
X362050Y402500D02*
Y415300D01*
X363800Y417050D01*
X368800D02*
X370168Y415682D01*
Y389000D02*
Y415682D01*
X372727Y389000D02*
Y418123D01*
X368800Y422050D02*
X372727Y418123D01*
X375286Y389000D02*
Y420564D01*
X368800Y427050D02*
X375286Y420564D01*
X184500Y232500D02*
X187000Y230000D01*
X179000D02*
X181000Y232000D01*
X228500Y236000D02*
X231000Y233500D01*
Y230000D02*
Y233500D01*
X223000Y230000D02*
Y234000D01*
X239000Y293000D02*
X247950D01*
X210000Y160000D02*
Y173000D01*
X200500Y182500D02*
X210000Y173000D01*
X22500Y415700D02*
X34500D01*
X559450Y351700D02*
Y362200D01*
Y370200D02*
X579950D01*
X559852Y332798D02*
X579950D01*
X490650Y342050D02*
X500650D01*
X508650D02*
X522650D01*
X523150Y342550D01*
X652000Y388000D02*
X657500D01*
X676500Y394500D02*
Y400000D01*
X223000Y234000D02*
X225000Y236000D01*
X184500Y232500D02*
Y235500D01*
X153598Y251500D02*
Y270398D01*
X236650Y395400D02*
X240150Y391900D01*
X236650Y395400D02*
Y396700D01*
X515910Y302550D02*
X523550D01*
X523650Y302450D01*
X487150Y302550D02*
X494650D01*
X486950Y302750D02*
X487150Y302550D01*
X386750Y127200D02*
Y133650D01*
X390600Y137500D01*
X401750Y127200D02*
X409150Y119800D01*
X412700D01*
X420700D02*
X424350D01*
X431750Y127200D01*
X389550Y145000D02*
X390600D01*
X371750Y127200D02*
X389550Y145000D01*
X398600D02*
X413950D01*
X431750Y127200D01*
X371750Y17200D02*
X382600D01*
X382700Y17300D01*
X390700D02*
X401650D01*
X401750Y17200D01*
X506500D02*
X517600D01*
X525600D02*
X536500D01*
Y127200D02*
X541800D01*
X548600Y120400D01*
X556600D02*
X559700D01*
X566500Y127200D01*
X521500Y133600D02*
X525100Y137200D01*
X521500Y127200D02*
Y133600D01*
X533100Y137200D02*
X556500D01*
X566500Y127200D01*
X533100Y144300D02*
X555100D01*
X566500Y132900D01*
Y127200D02*
Y132900D01*
X508000Y127200D02*
X525100Y144300D01*
X506500Y127200D02*
X508000D01*
X84100Y197800D02*
Y379400D01*
Y197800D02*
X99400Y182500D01*
X200500D01*
X178800Y274800D02*
X183100D01*
X185400Y272500D01*
X178900Y278100D02*
X183000D01*
X185400Y280500D01*
X179300Y257900D02*
X183400D01*
X185300Y259800D01*
X179300Y254500D02*
X182600D01*
X185300Y251800D01*
X181746Y306254D02*
Y308747D01*
X185000Y312000D01*
X178500Y306500D02*
Y310500D01*
X177000Y312000D02*
X178500Y310500D01*
X429541Y357759D02*
X429600Y357700D01*
X426982Y363069D02*
Y366582D01*
X426300Y369200D02*
X429600D01*
X421864Y363069D02*
Y366964D01*
X419300Y368800D02*
X419305Y368795D01*
X429541Y357759D02*
Y363069D01*
X426982Y366582D02*
X429600Y369200D01*
X419305Y363069D02*
Y368795D01*
X421864Y366964D02*
X424100Y369200D01*
X429600D02*
X432600D01*
X424100D02*
X426300D01*
X424423Y363069D02*
Y367323D01*
X426300Y369200D01*
X315950Y370550D02*
X317750D01*
X313873Y368473D02*
X315950Y370550D01*
X313873Y364500D02*
Y368473D01*
X316432Y364500D02*
Y369232D01*
X317750Y370550D01*
X318991Y369309D01*
Y364500D02*
Y369309D01*
X321550Y364500D02*
Y369050D01*
X320050Y370550D02*
X321550Y369050D01*
X317750Y370550D02*
X320050D01*
X324109Y364500D02*
Y370491D01*
X324100Y370500D02*
X324109Y370491D01*
X331786Y364500D02*
X335350D01*
X335450Y364400D01*
X363750Y370650D02*
X365050Y369350D01*
Y364769D02*
Y369350D01*
X362491Y369391D02*
X363750Y370650D01*
X362491Y364769D02*
Y369391D01*
X367000Y359200D02*
X367609Y359809D01*
Y364769D01*
X357373Y369473D02*
X358650Y370750D01*
X357373Y364769D02*
Y369473D01*
X359932Y364769D02*
Y369468D01*
X358650Y370750D02*
X359932Y369468D01*
X375505Y364550D02*
X379800D01*
X375286Y364769D02*
X375505Y364550D01*
X429541Y387300D02*
Y416759D01*
X409250Y437050D02*
X429541Y416759D01*
X432100Y387300D02*
Y429900D01*
X439250Y437050D01*
X434659Y387300D02*
Y402459D01*
X469250Y437050D01*
X437218Y387300D02*
Y393818D01*
X452050Y408650D01*
X486200Y424000D02*
X499250Y437050D01*
X486200Y417500D02*
Y424000D01*
X452050Y408650D02*
X477350D01*
X486200Y417500D01*
X510850Y423550D02*
X516250D01*
X511600Y432000D02*
X516450D01*
X516500Y432050D01*
X214500Y277900D02*
Y283100D01*
Y277900D02*
X214700Y277700D01*
X214500Y291100D02*
X214600Y291000D01*
X227500D01*
X524500Y432050D02*
X536750D01*
X524250Y423550D02*
X529650D01*
X533150Y427050D01*
X536750D01*
X224750Y396500D02*
X224950D01*
X225550D01*
X224950D02*
X225450Y397000D01*
X230050D01*
X235150Y391900D01*
X225550Y396500D02*
X230150Y391900D01*
X220150D02*
X224750Y396500D01*
X218900Y374350D02*
X225150Y380600D01*
Y386900D01*
X219000Y360900D02*
Y366250D01*
X218900Y366350D02*
X219000Y366250D01*
X235150Y382400D02*
Y386900D01*
Y382400D02*
X239200Y378350D01*
Y374400D02*
Y378350D01*
X239250Y360800D02*
Y366350D01*
X239200Y366400D02*
X239250Y366350D01*
X240150Y386900D02*
X248700D01*
X230150Y364750D02*
Y386900D01*
X624632Y334432D02*
X628900D01*
X523800Y312750D02*
X616600D01*
X622918Y344668D02*
X628900D01*
X623600Y315350D02*
Y333400D01*
X624632Y334432D01*
X618650Y318750D02*
Y333921D01*
X620900Y317050D02*
Y333350D01*
X624541Y336991D01*
X628900D01*
X616200Y320750D02*
Y337950D01*
X622918Y344668D01*
X579950Y332798D02*
X594379Y347227D01*
X605672D01*
X611564Y329314D02*
X613800Y331550D01*
X610173Y331873D02*
X611650Y333350D01*
X681500Y394500D02*
Y400500D01*
X666500Y398500D02*
X673500Y405500D01*
X634314Y323900D02*
X638300D01*
X646450D01*
X628900Y329314D02*
X634314Y323900D01*
X628927Y331900D02*
X638300D01*
X628900Y331873D02*
X628927Y331900D01*
X605672Y331873D02*
X610173D01*
X605672Y329314D02*
X611564D01*
X618650Y333921D02*
X624279Y339550D01*
X628900D01*
X605550Y352467D02*
Y356450D01*
Y352467D02*
X605672Y352345D01*
X613800Y331550D02*
Y344900D01*
X632100Y363200D01*
X611650Y333350D02*
Y345050D01*
X633500Y366900D01*
X671500Y391100D02*
Y394500D01*
X668400Y388000D02*
X671500Y391100D01*
X657500Y388000D02*
X668400D01*
X657500Y375300D02*
Y380000D01*
X666500Y376193D02*
Y378700D01*
X665200Y380000D02*
X666500Y378700D01*
X657500Y380000D02*
X665200D01*
X681500Y386150D02*
Y394500D01*
X230150Y351450D02*
Y356750D01*
X227750Y364750D02*
X230150D01*
X201450Y335250D02*
Y338550D01*
X227700Y364800D01*
X239000Y297000D02*
X243950D01*
X247950Y301000D01*
X253850Y286900D02*
X258750D01*
X274450Y271200D01*
X284100D01*
X306450Y246600D02*
X385850Y326000D01*
X185700Y246600D02*
X306450D01*
X367550Y331050D02*
X426600D01*
X321500Y310800D02*
X341750Y331050D01*
X215750Y307800D02*
X327150D01*
X355350Y336000D01*
X470850D01*
X221650Y313800D02*
X315750D01*
X342950Y341000D01*
X475750D01*
X327150Y307800D02*
X337250D01*
X332350Y341000D02*
X342950D01*
X306450Y246600D02*
X317000D01*
X325000D02*
X330100D01*
X337250Y294550D02*
Y299800D01*
X319400Y341000D02*
X324350D01*
X218700Y310800D02*
X321500D01*
X193550Y313650D02*
X198200D01*
X218300Y333750D01*
X296100D01*
X313250Y350900D02*
X323950D01*
X329227Y356177D01*
Y364500D01*
X326668Y357168D02*
Y364500D01*
X323250Y353750D02*
X326668Y357168D01*
X311400Y353750D02*
X323250D01*
X294350Y336700D02*
X311400Y353750D01*
X213750Y336700D02*
X294350D01*
X196400Y319350D02*
X213750Y336700D01*
X323950Y350900D02*
X367300D01*
X372727Y356327D01*
Y364769D01*
X370168D02*
Y371282D01*
X367650Y373800D02*
X370168Y371282D01*
X329600Y373800D02*
X367650D01*
X326668Y370868D02*
X329600Y373800D01*
X326668Y364500D02*
Y370868D01*
X296100Y333750D02*
X313250Y350900D01*
X296100Y333750D02*
X304400D01*
X312400D02*
X315950D01*
X319400Y337200D01*
Y341000D01*
X299900Y353750D02*
X311400D01*
X285850D02*
X291900D01*
X137500Y251500D02*
X153598D01*
X137500Y288500D02*
X154000D01*
Y273300D02*
Y288500D01*
X385950Y308550D02*
Y317500D01*
X340300Y262900D02*
X385950Y308550D01*
X390400Y304000D02*
Y317850D01*
X354650Y268250D02*
X390400Y304000D01*
Y377750D02*
X399950Y387300D01*
X385950Y381600D02*
Y383750D01*
X399800Y397600D01*
X415900D01*
X367650Y373800D02*
X393650D01*
X413500Y353950D01*
X367300Y350900D02*
X430900D01*
X413500Y353950D02*
X430100D01*
X432100Y355950D01*
Y363069D01*
X434659Y354659D02*
Y363069D01*
X430900Y350900D02*
X434659Y354659D01*
X437200Y356250D02*
Y363050D01*
X437218Y363069D01*
X432100D02*
Y366000D01*
X433300Y367200D01*
X426600Y331050D02*
X426650Y331000D01*
X475750Y341000D02*
X484250Y332500D01*
Y325900D02*
Y332500D01*
Y325900D02*
X487600Y322550D01*
X494650D01*
X470850Y336000D02*
X476900Y329950D01*
Y324900D02*
Y329950D01*
Y324900D02*
X484250Y317550D01*
X494650D01*
X469350Y307550D02*
X494650D01*
X426650Y331000D02*
X464900D01*
X472050Y323850D01*
Y317250D02*
Y323850D01*
Y317250D02*
X476750Y312550D01*
X494650D01*
X461400Y315500D02*
X469350Y307550D01*
X385850Y326000D02*
X455800D01*
X461400Y320400D01*
Y315500D02*
Y320400D01*
X515910Y322550D02*
X524000D01*
X529200Y317350D01*
X526000Y317550D02*
X528550Y315000D01*
X515910Y317550D02*
X526000D01*
X515910Y312550D02*
X523600D01*
X523800Y312750D01*
X515910Y307550D02*
X524950D01*
X528200Y310800D01*
X430900Y350900D02*
X472700D01*
X480000Y358200D01*
X530350D01*
X433300Y367200D02*
X474950D01*
X480350Y361800D01*
X527750D01*
X633500Y366900D02*
X635700D01*
X641450Y384950D02*
X651000Y394500D01*
X632100Y363200D02*
X637700D01*
X641450Y366950D01*
Y384950D01*
X541600Y368550D02*
Y375500D01*
X541500Y368450D02*
X541600Y368550D01*
X541500Y352150D02*
Y360450D01*
X256700Y386900D02*
X263600D01*
X529200Y317350D02*
X612800D01*
X616200Y320750D01*
X614900Y315000D02*
X618650Y318750D01*
X528550Y315000D02*
X614900D01*
X616600Y312750D02*
X620900Y317050D01*
X528200Y310800D02*
X619050D01*
X623600Y315350D01*
X606050Y380500D02*
X620650Y395100D01*
Y415950D01*
X626750Y422050D01*
X617450Y417750D02*
X626750Y427050D01*
X617450Y398050D02*
Y417750D01*
X597200Y377800D02*
X617450Y398050D01*
X596250Y377800D02*
X597200D01*
X628550Y170500D02*
Y191050D01*
X652000Y214500D01*
X649100Y218850D02*
X657650D01*
X662000Y214500D01*
Y224500D02*
X672150Y214350D01*
Y186500D02*
Y214350D01*
X645350Y159700D02*
X672150Y186500D01*
X662000Y204500D02*
X668450Y198050D01*
Y189750D02*
Y198050D01*
X641150Y162450D02*
X668450Y189750D01*
X266650Y238050D02*
X270600Y234100D01*
X619500Y189250D02*
X649100Y218850D01*
X619500Y184750D02*
Y189250D01*
X648200Y315500D02*
X662000D01*
X258050Y202550D02*
Y241450D01*
Y202550D02*
X300900Y159700D01*
X645350D01*
X642700Y305500D02*
X662000D01*
X633300Y285500D02*
X662000D01*
X590150Y167600D02*
X611950Y189400D01*
Y264150D01*
X633300Y285500D01*
X603100Y190300D02*
Y265900D01*
X642700Y305500D01*
X587250Y179450D02*
X598800Y191000D01*
Y266100D01*
X648200Y315500D01*
X270600Y195450D02*
Y234100D01*
Y195450D02*
X303600Y162450D01*
X641150D01*
X305550Y167600D02*
X590150D01*
X279650Y193500D02*
X305550Y167600D01*
X279650Y193500D02*
Y221600D01*
X287850Y199700D02*
Y229250D01*
Y199700D02*
X308100Y179450D01*
X587250D01*
X586900Y174100D02*
X603100Y190300D01*
X282400Y198400D02*
Y224150D01*
Y198400D02*
X306700Y174100D01*
X586900D01*
X153900Y159000D02*
X157900D01*
X151550Y156650D02*
X153900Y159000D01*
X151550Y152000D02*
Y156650D01*
X166250Y159000D02*
X167950D01*
X164550Y157300D02*
X166250Y159000D01*
X164550Y152000D02*
Y157300D01*
X177950Y156450D02*
Y159000D01*
Y156450D02*
X178750Y155650D01*
Y152300D02*
Y155650D01*
X178450Y152000D02*
X178750Y152300D01*
X187950Y159000D02*
X189700D01*
X191200Y157500D01*
Y152000D02*
Y157500D01*
X28150Y76250D02*
Y94900D01*
X28100Y94950D02*
X28150Y94900D01*
X28100Y102950D02*
Y108850D01*
Y94950D02*
X115000D01*
X151550Y131500D01*
Y144000D01*
X40100Y13300D02*
Y19300D01*
X28150Y39250D02*
X40100Y27300D01*
X28150Y39250D02*
Y46250D01*
X42500Y60600D01*
X96550D01*
X164550Y128600D01*
Y144000D01*
X661650Y102100D02*
Y109700D01*
Y76250D02*
Y94100D01*
X284550D02*
X661650D01*
X234650Y144000D02*
X284550Y94100D01*
X191200Y144000D02*
X234650D01*
X178450D02*
X187400Y135050D01*
X233200D01*
X281400Y86850D01*
X550850D01*
X637800Y12600D02*
Y18250D01*
Y26250D02*
X643550Y32000D01*
X651200D01*
X661650Y42450D01*
Y46250D01*
Y49900D01*
X647900Y63650D02*
X661650Y49900D01*
X574050Y63650D02*
X647900D01*
X550850Y86850D02*
X574050Y63650D01*
X187950Y195500D02*
X190950D01*
X196600Y201150D01*
X180500Y216100D02*
X194500D01*
X196600Y214000D01*
Y209150D02*
Y214000D01*
X177950Y195500D02*
X180450D01*
X182350Y197400D01*
Y201250D01*
Y209250D02*
Y214250D01*
X180500Y216100D02*
X182350Y214250D01*
X167900Y195550D02*
X167950Y195500D01*
X150350D02*
X157900D01*
X147600Y198250D02*
X150350Y195500D01*
X149200Y216100D02*
X180500D01*
X147600Y211200D02*
Y214500D01*
X149200Y216100D01*
X147600Y198250D02*
Y203200D01*
X167950Y195500D02*
Y201200D01*
Y209200D02*
Y211600D01*
X170050Y213700D01*
X178100D01*
X180500Y216100D01*
X362557Y425050D02*
X363800D01*
X331850Y212450D02*
X340300D01*
X352800Y199950D01*
X349050Y259000D02*
Y265100D01*
Y259000D02*
X354650Y253400D01*
X337250Y307800D02*
X347500D01*
X337450Y346100D02*
X342750D01*
X332350Y341000D02*
X337450Y346100D01*
X312750Y230100D02*
X317000Y234350D01*
Y246600D01*
X444350Y218650D02*
Y228000D01*
Y238000D02*
Y247200D01*
D21*
X298351Y35962D02*
D03*
X304650D02*
D03*
X310949D02*
D03*
X301500Y29072D02*
D03*
X307800D02*
D03*
D22*
X319020Y14997D02*
D03*
X290280D02*
D03*
D23*
X652000Y133500D02*
D03*
Y143500D02*
D03*
Y153500D02*
D03*
X662000Y133500D02*
D03*
Y143500D02*
D03*
Y153500D02*
D03*
X48000D02*
D03*
Y143500D02*
D03*
Y133500D02*
D03*
X38000Y153500D02*
D03*
Y143500D02*
D03*
Y133500D02*
D03*
X226500Y437000D02*
D03*
X236500D02*
D03*
X272500D02*
D03*
X282500D02*
D03*
X88500D02*
D03*
X98500D02*
D03*
X42500D02*
D03*
X52500D02*
D03*
X428500Y268000D02*
D03*
Y258000D02*
D03*
Y248000D02*
D03*
Y238000D02*
D03*
Y228000D02*
D03*
Y218000D02*
D03*
Y208000D02*
D03*
Y198000D02*
D03*
Y188000D02*
D03*
X312500Y268000D02*
D03*
Y188000D02*
D03*
X519000Y246000D02*
D03*
Y236000D02*
D03*
Y226000D02*
D03*
Y216000D02*
D03*
X589000Y256000D02*
D03*
Y246000D02*
D03*
Y236000D02*
D03*
Y226000D02*
D03*
Y216000D02*
D03*
Y206000D02*
D03*
X584000Y273500D02*
D03*
Y188500D02*
D03*
X524000Y273500D02*
D03*
Y188500D02*
D03*
X38000Y315500D02*
D03*
Y305500D02*
D03*
Y295500D02*
D03*
Y285500D02*
D03*
Y275500D02*
D03*
X48000Y234500D02*
D03*
Y224500D02*
D03*
X38000Y234500D02*
D03*
Y224500D02*
D03*
Y194500D02*
D03*
Y204500D02*
D03*
Y214500D02*
D03*
X48000Y194500D02*
D03*
Y204500D02*
D03*
Y214500D02*
D03*
X662000Y275500D02*
D03*
Y285500D02*
D03*
Y295500D02*
D03*
Y305500D02*
D03*
Y315500D02*
D03*
X652000Y194500D02*
D03*
Y204500D02*
D03*
X662000Y194500D02*
D03*
Y204500D02*
D03*
Y234500D02*
D03*
Y224500D02*
D03*
Y214500D02*
D03*
X652000Y234500D02*
D03*
Y224500D02*
D03*
Y214500D02*
D03*
X134500Y437000D02*
D03*
X144500D02*
D03*
X180500D02*
D03*
X190500D02*
D03*
D24*
X16250Y18750D02*
D03*
X678750D02*
D03*
X16250Y456250D02*
D03*
X678750D02*
D03*
D25*
X506500Y17200D02*
D03*
X536500D02*
D03*
X566500D02*
D03*
X521500Y127200D02*
D03*
X536500D02*
D03*
X371750Y17200D02*
D03*
X401750D02*
D03*
X431750D02*
D03*
X386750Y127200D02*
D03*
X401750D02*
D03*
D26*
X506500D02*
D03*
X566500D02*
D03*
X371750D02*
D03*
X431750D02*
D03*
D27*
X409250Y437050D02*
D03*
Y432050D02*
D03*
Y427050D02*
D03*
X439250Y437050D02*
D03*
Y432050D02*
D03*
Y427050D02*
D03*
X469250Y437050D02*
D03*
Y432050D02*
D03*
Y427050D02*
D03*
X499250Y437050D02*
D03*
Y432050D02*
D03*
Y427050D02*
D03*
X326300D02*
D03*
Y417050D02*
D03*
Y422050D02*
D03*
Y432050D02*
D03*
Y437050D02*
D03*
X321300D02*
D03*
Y432050D02*
D03*
Y422050D02*
D03*
Y417050D02*
D03*
Y427050D02*
D03*
X671850Y357500D02*
D03*
X666850D02*
D03*
X661850D02*
D03*
X368800Y427050D02*
D03*
Y417050D02*
D03*
Y422050D02*
D03*
Y432050D02*
D03*
Y437050D02*
D03*
X363800D02*
D03*
Y432050D02*
D03*
Y422050D02*
D03*
Y417050D02*
D03*
Y427050D02*
D03*
X28150Y76250D02*
D03*
X33150D02*
D03*
X38150D02*
D03*
X28150Y46250D02*
D03*
X33150D02*
D03*
X38150D02*
D03*
X661650Y76250D02*
D03*
X656650D02*
D03*
X651650D02*
D03*
X661650Y46250D02*
D03*
X656650D02*
D03*
X651650D02*
D03*
X566750Y437050D02*
D03*
Y427050D02*
D03*
Y422050D02*
D03*
Y432050D02*
D03*
X596750Y437050D02*
D03*
Y427050D02*
D03*
Y422050D02*
D03*
Y432050D02*
D03*
X626750Y437050D02*
D03*
Y427050D02*
D03*
Y422050D02*
D03*
Y432050D02*
D03*
X656750Y437050D02*
D03*
Y427050D02*
D03*
Y422050D02*
D03*
Y432050D02*
D03*
X28150Y357500D02*
D03*
X33150D02*
D03*
X43150D02*
D03*
X53150D02*
D03*
X48150D02*
D03*
X38150D02*
D03*
X536750Y437050D02*
D03*
Y432050D02*
D03*
Y427050D02*
D03*
D28*
X409250Y447250D02*
D03*
Y416850D02*
D03*
X439250Y447250D02*
D03*
Y416850D02*
D03*
X469250Y447250D02*
D03*
Y416850D02*
D03*
X499250Y447250D02*
D03*
Y416850D02*
D03*
X323800Y447250D02*
D03*
Y406850D02*
D03*
X682050Y357500D02*
D03*
X651650D02*
D03*
X366300Y447250D02*
D03*
Y406850D02*
D03*
X17950Y76250D02*
D03*
X48350D02*
D03*
X17950Y46250D02*
D03*
X48350D02*
D03*
X671850Y76250D02*
D03*
X641450D02*
D03*
X671850Y46250D02*
D03*
X641450D02*
D03*
X566750Y447250D02*
D03*
Y411850D02*
D03*
X596750Y447250D02*
D03*
Y411850D02*
D03*
X626750Y447250D02*
D03*
Y411850D02*
D03*
X656750Y447250D02*
D03*
Y411850D02*
D03*
X63350Y357500D02*
D03*
X18150D02*
D03*
X536750Y447250D02*
D03*
Y416850D02*
D03*
D29*
X227000Y106000D02*
D03*
Y119400D02*
D03*
X174000D02*
D03*
Y106000D02*
D03*
D30*
X220150Y386900D02*
D03*
Y391900D02*
D03*
X225150Y386900D02*
D03*
Y391900D02*
D03*
X230150Y386900D02*
D03*
Y391900D02*
D03*
X235150Y386900D02*
D03*
Y391900D02*
D03*
X240150Y386900D02*
D03*
Y391900D02*
D03*
D31*
X160000Y46500D02*
D03*
X143504D02*
D03*
X248250D02*
D03*
X231754D02*
D03*
D32*
X276000Y274000D02*
D03*
X284100Y271200D02*
D03*
X252000Y282150D02*
D03*
X248300Y284900D02*
D03*
X253850Y286900D02*
D03*
X260750Y289150D02*
D03*
X289900Y264100D02*
D03*
X296200Y267400D02*
D03*
X394750Y242900D02*
D03*
X379350Y215950D02*
D03*
X371400Y215850D02*
D03*
X395300Y199350D02*
D03*
X395200Y189650D02*
D03*
X447650Y378600D02*
D03*
X409200Y380800D02*
D03*
X77400Y257700D02*
D03*
X71600Y259600D02*
D03*
X52600Y279200D02*
D03*
X61200Y252500D02*
D03*
X61100Y259500D02*
D03*
X181000Y235500D02*
D03*
X61100Y256200D02*
D03*
X153900Y270700D02*
D03*
X154000Y273300D02*
D03*
X429600Y357700D02*
D03*
X490150Y342550D02*
D03*
X129500Y271000D02*
D03*
X227500Y291000D02*
D03*
X394650Y252850D02*
D03*
X380350Y269950D02*
D03*
X372200Y269850D02*
D03*
X673500Y422500D02*
D03*
X684500D02*
D03*
X228500Y236000D02*
D03*
X239000Y293000D02*
D03*
Y297000D02*
D03*
X210000Y160000D02*
D03*
X22500Y415700D02*
D03*
X452850Y357200D02*
D03*
X453450Y392200D02*
D03*
X403650Y356350D02*
D03*
Y394550D02*
D03*
X559450Y351700D02*
D03*
X523150Y342550D02*
D03*
X657500Y375300D02*
D03*
X652000Y388000D02*
D03*
X676500Y400000D02*
D03*
X225000Y236000D02*
D03*
X184500Y235500D02*
D03*
X176900Y348900D02*
D03*
X181746Y306254D02*
D03*
X178500Y306500D02*
D03*
X36050Y389800D02*
D03*
X367000Y359200D02*
D03*
X363750Y370650D02*
D03*
X124300Y395100D02*
D03*
X335450Y364400D02*
D03*
X324100Y370500D02*
D03*
X236650Y396700D02*
D03*
X523650Y302450D02*
D03*
X486950Y302750D02*
D03*
X173100Y370100D02*
D03*
X176900Y359800D02*
D03*
X178900Y278100D02*
D03*
X178800Y274800D02*
D03*
X167100Y284500D02*
D03*
X179300Y254500D02*
D03*
Y257900D02*
D03*
X172500Y315300D02*
D03*
X432600Y369200D02*
D03*
X419300Y368800D02*
D03*
X317750Y370550D02*
D03*
X379800Y364550D02*
D03*
X358650Y370750D02*
D03*
X510850Y423550D02*
D03*
X511600Y432000D02*
D03*
X214700Y277700D02*
D03*
X224950Y396500D02*
D03*
X219000Y360900D02*
D03*
X239250Y360800D02*
D03*
X635700Y366900D02*
D03*
X605550Y356450D02*
D03*
X646450Y323900D02*
D03*
X681500Y386150D02*
D03*
X230150Y351450D02*
D03*
X201450Y335250D02*
D03*
X215750Y307800D02*
D03*
X221650Y313800D02*
D03*
X185700Y246600D02*
D03*
X367550Y331050D02*
D03*
X341750D02*
D03*
X330100Y246600D02*
D03*
X337250Y294550D02*
D03*
X361900Y317450D02*
D03*
X319400Y341000D02*
D03*
X193550Y313650D02*
D03*
X218700Y310800D02*
D03*
X196400Y319350D02*
D03*
X285850Y353750D02*
D03*
X385950Y381600D02*
D03*
X390400Y377750D02*
D03*
X385950Y317500D02*
D03*
X390400Y317850D02*
D03*
X437200Y356250D02*
D03*
X530350Y358200D02*
D03*
X527750Y361800D02*
D03*
X541500Y352150D02*
D03*
X541600Y375500D02*
D03*
X263600Y386900D02*
D03*
X596250Y377800D02*
D03*
X606050Y380500D02*
D03*
X505600Y375400D02*
D03*
X628550Y170500D02*
D03*
X258050Y241450D02*
D03*
X266650Y238050D02*
D03*
X619500Y184750D02*
D03*
X287850Y229250D02*
D03*
X282400Y224150D02*
D03*
X279650Y221600D02*
D03*
X222800Y215250D02*
D03*
X157900Y195500D02*
D03*
X167950D02*
D03*
X177950D02*
D03*
X187950D02*
D03*
X178000Y175600D02*
D03*
X187950Y159000D02*
D03*
X177950D02*
D03*
X167950D02*
D03*
X157900D02*
D03*
X28100Y108850D02*
D03*
X40100Y13300D02*
D03*
X661650Y109700D02*
D03*
X637800Y12600D02*
D03*
X180500Y216100D02*
D03*
D33*
X331850Y212450D02*
D03*
X349050Y265100D02*
D03*
X347500Y307800D02*
D03*
X357900Y325450D02*
D03*
X342750Y346100D02*
D03*
X312750Y230100D02*
D03*
X444350Y218650D02*
D03*
Y247200D02*
D03*
D52*
X326668Y388732D02*
D03*
X324109D02*
D03*
X321550D02*
D03*
X318991D02*
D03*
X316432D02*
D03*
X313873D02*
D03*
X331786Y364500D02*
D03*
X329227D02*
D03*
X326668D02*
D03*
X324109D02*
D03*
X321550D02*
D03*
X318991D02*
D03*
X316432D02*
D03*
X313873D02*
D03*
X331786Y388732D02*
D03*
X329227D02*
D03*
X432100Y387300D02*
D03*
X429541D02*
D03*
X426982D02*
D03*
X424423D02*
D03*
X421864D02*
D03*
X419305D02*
D03*
X437218Y363069D02*
D03*
X434659D02*
D03*
X432100D02*
D03*
X429541D02*
D03*
X426982D02*
D03*
X424423D02*
D03*
X421864D02*
D03*
X419305D02*
D03*
X437218Y387300D02*
D03*
X434659D02*
D03*
X370168Y389000D02*
D03*
X367609D02*
D03*
X365050D02*
D03*
X362491D02*
D03*
X359932D02*
D03*
X357373D02*
D03*
X375286Y364769D02*
D03*
X372727D02*
D03*
X370168D02*
D03*
X367609D02*
D03*
X365050D02*
D03*
X362491D02*
D03*
X359932D02*
D03*
X357373D02*
D03*
X375286Y389000D02*
D03*
X372727D02*
D03*
D53*
X494650Y332550D02*
D03*
Y327550D02*
D03*
Y322550D02*
D03*
Y317550D02*
D03*
Y312550D02*
D03*
Y307550D02*
D03*
Y302550D02*
D03*
X515910D02*
D03*
Y307550D02*
D03*
Y312550D02*
D03*
Y327550D02*
D03*
Y332550D02*
D03*
Y317550D02*
D03*
Y322550D02*
D03*
D54*
X671500Y376193D02*
D03*
X676500D02*
D03*
X681500D02*
D03*
Y394500D02*
D03*
X676500D02*
D03*
X671500D02*
D03*
X666500D02*
D03*
Y376193D02*
D03*
D55*
X579950Y370200D02*
D03*
Y332798D02*
D03*
X154000Y251098D02*
D03*
Y288500D02*
D03*
D56*
X388150Y240350D02*
D03*
Y245350D02*
D03*
Y250350D02*
D03*
Y255350D02*
D03*
X365414Y240350D02*
D03*
Y245350D02*
D03*
Y250350D02*
D03*
Y255350D02*
D03*
X387036Y187000D02*
D03*
Y192000D02*
D03*
Y197000D02*
D03*
Y202000D02*
D03*
X364300Y187000D02*
D03*
Y192000D02*
D03*
Y197000D02*
D03*
Y202000D02*
D03*
D57*
X628900Y352345D02*
D03*
Y349786D02*
D03*
Y347227D02*
D03*
Y344668D02*
D03*
Y342109D02*
D03*
Y339550D02*
D03*
Y336991D02*
D03*
Y334432D02*
D03*
Y331873D02*
D03*
Y329314D02*
D03*
X605672Y352345D02*
D03*
Y349786D02*
D03*
Y347227D02*
D03*
Y344668D02*
D03*
Y342109D02*
D03*
Y339550D02*
D03*
Y336991D02*
D03*
Y334432D02*
D03*
Y331873D02*
D03*
D58*
Y329314D02*
D03*
M02*
