G04 Layer_Physical_Order=5*
G04 Layer_Color=128*
%FSLAX25Y25*%
%MOIN*%
G70*
G01*
G75*
%ADD33C,0.05000*%
%ADD34C,0.04000*%
%ADD35O,0.06756X0.11480*%
%ADD36C,0.06756*%
%ADD37C,0.08000*%
%ADD38C,0.15000*%
%ADD39C,0.10000*%
%ADD40C,0.12000*%
%ADD41C,0.06500*%
%ADD42C,0.07500*%
%ADD43C,0.10693*%
%ADD44C,0.08016*%
%ADD45C,0.13000*%
%ADD46C,0.08016*%
%ADD47C,0.14000*%
%ADD48C,0.06800*%
%ADD49C,0.11008*%
%ADD50C,0.07000*%
%ADD51C,0.02000*%
D33*
X276000Y274000D02*
D03*
X284100Y271200D02*
D03*
X252000Y282150D02*
D03*
X248300Y284900D02*
D03*
X253850Y286900D02*
D03*
X260750Y289150D02*
D03*
X289900Y264100D02*
D03*
X296200Y267400D02*
D03*
X394750Y242900D02*
D03*
X379350Y215950D02*
D03*
X371400Y215850D02*
D03*
X395200Y189650D02*
D03*
X447650Y378600D02*
D03*
X409200Y380800D02*
D03*
X77400Y257700D02*
D03*
X71600Y259600D02*
D03*
X52600Y279200D02*
D03*
X61200Y252500D02*
D03*
X61100Y259500D02*
D03*
X181000Y235500D02*
D03*
X61100Y256200D02*
D03*
X153900Y270700D02*
D03*
X154000Y273300D02*
D03*
X429600Y357700D02*
D03*
X490150Y342550D02*
D03*
X129500Y271000D02*
D03*
X227500Y291000D02*
D03*
X394650Y252850D02*
D03*
X380350Y269950D02*
D03*
X372200Y269850D02*
D03*
X673500Y422500D02*
D03*
X684500D02*
D03*
X228500Y236000D02*
D03*
X239000Y293000D02*
D03*
Y297000D02*
D03*
X210000Y160000D02*
D03*
X22500Y415700D02*
D03*
X453450Y392200D02*
D03*
X403650Y356350D02*
D03*
Y394550D02*
D03*
X559450Y351700D02*
D03*
X523150Y342550D02*
D03*
X657500Y375300D02*
D03*
X652000Y388000D02*
D03*
X676500Y400000D02*
D03*
X225000Y236000D02*
D03*
X184500Y235500D02*
D03*
X176900Y348900D02*
D03*
X181746Y306254D02*
D03*
X178500Y306500D02*
D03*
X36050Y389800D02*
D03*
X367000Y359200D02*
D03*
X363750Y370650D02*
D03*
X124300Y395100D02*
D03*
X335450Y364400D02*
D03*
X324100Y370500D02*
D03*
X236650Y396700D02*
D03*
X523650Y302450D02*
D03*
X486950Y302750D02*
D03*
X173100Y370100D02*
D03*
X176900Y359800D02*
D03*
X178900Y278100D02*
D03*
X178800Y274800D02*
D03*
X167100Y284500D02*
D03*
X179300Y254500D02*
D03*
Y257900D02*
D03*
X172500Y315300D02*
D03*
X432600Y369200D02*
D03*
X419300Y368800D02*
D03*
X317750Y370550D02*
D03*
X379800Y364550D02*
D03*
X358650Y370750D02*
D03*
X510850Y423550D02*
D03*
X511600Y432000D02*
D03*
X214700Y277700D02*
D03*
X224950Y396500D02*
D03*
X219000Y360900D02*
D03*
X239250Y360800D02*
D03*
X635700Y366900D02*
D03*
X605550Y356450D02*
D03*
X646450Y323900D02*
D03*
X681500Y386150D02*
D03*
X230150Y351450D02*
D03*
X201450Y335250D02*
D03*
X215750Y307800D02*
D03*
X221650Y313800D02*
D03*
X185700Y246600D02*
D03*
X367550Y331050D02*
D03*
X341750D02*
D03*
X330100Y246600D02*
D03*
X337250Y294550D02*
D03*
X361900Y317450D02*
D03*
X319400Y341000D02*
D03*
X193550Y313650D02*
D03*
X218700Y310800D02*
D03*
X196400Y319350D02*
D03*
X285850Y353750D02*
D03*
X385950Y381600D02*
D03*
X390400Y377750D02*
D03*
X385950Y317500D02*
D03*
X390400Y317850D02*
D03*
X437200Y356250D02*
D03*
X530350Y358200D02*
D03*
X527750Y361800D02*
D03*
X541500Y352150D02*
D03*
X541600Y375500D02*
D03*
X263600Y386900D02*
D03*
X596250Y377800D02*
D03*
X606050Y380500D02*
D03*
X505600Y375400D02*
D03*
X628550Y170500D02*
D03*
X258050Y241450D02*
D03*
X266650Y238050D02*
D03*
X619500Y184750D02*
D03*
X287850Y229250D02*
D03*
X282400Y224150D02*
D03*
X279650Y221600D02*
D03*
X222800Y215250D02*
D03*
X157900Y195500D02*
D03*
X167950D02*
D03*
X177950D02*
D03*
X187950D02*
D03*
X178000Y175600D02*
D03*
X187950Y159000D02*
D03*
X177950D02*
D03*
X167950D02*
D03*
X157900D02*
D03*
X180500Y216100D02*
D03*
D34*
X0Y0D02*
X700000D01*
Y475000D01*
X0D02*
X700000D01*
X0Y0D02*
Y475000D01*
D35*
X319020Y14997D02*
D03*
X290280D02*
D03*
D36*
X298351Y34879D02*
D03*
X304650D02*
D03*
X310949D02*
D03*
X301500Y30155D02*
D03*
X307800D02*
D03*
D37*
X652000Y133500D02*
D03*
Y153500D02*
D03*
X662000Y143500D02*
D03*
X48000Y153500D02*
D03*
Y133500D02*
D03*
X38000Y143500D02*
D03*
X226500Y437000D02*
D03*
X236500D02*
D03*
X272500D02*
D03*
X282500D02*
D03*
X98500D02*
D03*
X42500D02*
D03*
X52500D02*
D03*
X38000Y315500D02*
D03*
Y305500D02*
D03*
Y295500D02*
D03*
Y285500D02*
D03*
Y275500D02*
D03*
X48000Y234500D02*
D03*
Y224500D02*
D03*
X38000Y234500D02*
D03*
Y224500D02*
D03*
Y194500D02*
D03*
Y204500D02*
D03*
Y214500D02*
D03*
X48000Y194500D02*
D03*
Y204500D02*
D03*
Y214500D02*
D03*
X662000Y275500D02*
D03*
Y285500D02*
D03*
Y295500D02*
D03*
Y305500D02*
D03*
Y315500D02*
D03*
X652000Y194500D02*
D03*
Y204500D02*
D03*
X662000Y194500D02*
D03*
Y204500D02*
D03*
Y234500D02*
D03*
Y224500D02*
D03*
Y214500D02*
D03*
X652000Y234500D02*
D03*
Y224500D02*
D03*
Y214500D02*
D03*
X144500Y437000D02*
D03*
X180500D02*
D03*
X190500D02*
D03*
D38*
X16250Y18750D02*
D03*
X678750D02*
D03*
X16250Y456250D02*
D03*
X678750D02*
D03*
D39*
X506500Y17200D02*
D03*
X536500D02*
D03*
X566500D02*
D03*
X521500Y127200D02*
D03*
X536500D02*
D03*
X371750Y17200D02*
D03*
X401750D02*
D03*
X431750D02*
D03*
X401750Y127200D02*
D03*
D40*
X506500D02*
D03*
X566500D02*
D03*
X431750D02*
D03*
D41*
X409250Y437050D02*
D03*
Y432050D02*
D03*
Y427050D02*
D03*
X439250Y437050D02*
D03*
Y432050D02*
D03*
Y427050D02*
D03*
X469250Y437050D02*
D03*
Y432050D02*
D03*
Y427050D02*
D03*
X499250Y437050D02*
D03*
Y432050D02*
D03*
Y427050D02*
D03*
X326300D02*
D03*
Y417050D02*
D03*
Y422050D02*
D03*
Y432050D02*
D03*
Y437050D02*
D03*
X321300D02*
D03*
Y432050D02*
D03*
Y422050D02*
D03*
Y417050D02*
D03*
Y427050D02*
D03*
X671850Y357500D02*
D03*
X666850D02*
D03*
X661850D02*
D03*
X368800Y427050D02*
D03*
Y417050D02*
D03*
Y422050D02*
D03*
Y432050D02*
D03*
Y437050D02*
D03*
X363800D02*
D03*
Y432050D02*
D03*
Y422050D02*
D03*
Y417050D02*
D03*
Y427050D02*
D03*
X28150Y76250D02*
D03*
X33150D02*
D03*
X28150Y46250D02*
D03*
X33150D02*
D03*
X661650Y76250D02*
D03*
X656650D02*
D03*
X661650Y46250D02*
D03*
X656650D02*
D03*
X566750Y437050D02*
D03*
Y427050D02*
D03*
Y422050D02*
D03*
Y432050D02*
D03*
X596750Y437050D02*
D03*
Y427050D02*
D03*
Y422050D02*
D03*
Y432050D02*
D03*
X626750Y437050D02*
D03*
Y427050D02*
D03*
Y422050D02*
D03*
Y432050D02*
D03*
X656750Y437050D02*
D03*
Y427050D02*
D03*
Y422050D02*
D03*
Y432050D02*
D03*
X28150Y357500D02*
D03*
X33150D02*
D03*
X43150D02*
D03*
X53150D02*
D03*
X48150D02*
D03*
X38150D02*
D03*
X536750Y437050D02*
D03*
Y432050D02*
D03*
Y427050D02*
D03*
D42*
X409250Y447250D02*
D03*
Y416850D02*
D03*
X439250Y447250D02*
D03*
Y416850D02*
D03*
X469250Y447250D02*
D03*
Y416850D02*
D03*
X499250Y447250D02*
D03*
Y416850D02*
D03*
X323800Y447250D02*
D03*
Y406850D02*
D03*
X682050Y357500D02*
D03*
X651650D02*
D03*
X366300Y447250D02*
D03*
Y406850D02*
D03*
X17950Y76250D02*
D03*
X48350D02*
D03*
X17950Y46250D02*
D03*
X48350D02*
D03*
X671850Y76250D02*
D03*
X641450D02*
D03*
X671850Y46250D02*
D03*
X641450D02*
D03*
X566750Y447250D02*
D03*
Y411850D02*
D03*
X596750Y447250D02*
D03*
Y411850D02*
D03*
X626750Y447250D02*
D03*
Y411850D02*
D03*
X656750Y447250D02*
D03*
Y411850D02*
D03*
X63350Y357500D02*
D03*
X18150D02*
D03*
X536750Y447250D02*
D03*
Y416850D02*
D03*
D43*
X227000Y106000D02*
D03*
Y119400D02*
D03*
X174000D02*
D03*
Y106000D02*
D03*
D44*
X428500Y268000D02*
D03*
Y258000D02*
D03*
Y248000D02*
D03*
Y238000D02*
D03*
Y228000D02*
D03*
Y218000D02*
D03*
Y208000D02*
D03*
Y198000D02*
D03*
Y188000D02*
D03*
D45*
X312500Y268000D02*
D03*
Y188000D02*
D03*
D46*
X519000Y246000D02*
D03*
Y236000D02*
D03*
Y226000D02*
D03*
Y216000D02*
D03*
X589000Y256000D02*
D03*
Y246000D02*
D03*
Y236000D02*
D03*
Y226000D02*
D03*
Y216000D02*
D03*
Y206000D02*
D03*
D47*
X584000Y273500D02*
D03*
Y188500D02*
D03*
X524000Y273500D02*
D03*
Y188500D02*
D03*
D48*
X220150Y386900D02*
D03*
Y391900D02*
D03*
X225150Y386900D02*
D03*
Y391900D02*
D03*
X230150Y386900D02*
D03*
Y391900D02*
D03*
X235150Y386900D02*
D03*
Y391900D02*
D03*
X240150Y386900D02*
D03*
Y391900D02*
D03*
D49*
X160000Y46500D02*
D03*
X143504D02*
D03*
X248250D02*
D03*
X231754D02*
D03*
D50*
X331850Y212450D02*
D03*
X349050Y265100D02*
D03*
X347500Y307800D02*
D03*
X357900Y325450D02*
D03*
X342750Y346100D02*
D03*
X312750Y230100D02*
D03*
X444350Y218650D02*
D03*
Y247200D02*
D03*
D51*
X597000Y0D02*
X597500Y500D01*
X195000D02*
X195500Y0D01*
M02*
