G04 Layer_Color=8388736*
%FSLAX25Y25*%
%MOIN*%
G70*
G01*
G75*
%ADD22O,0.06693X0.10630*%
%ADD48C,0.06800*%
%ADD68R,0.01981X0.05524*%
%ADD69R,0.05524X0.01981*%
%ADD70R,0.07926X0.05997*%
%ADD71R,0.03162X0.05131*%
%ADD72R,0.04800X0.05800*%
%ADD73R,0.05800X0.04800*%
%ADD74O,0.02572X0.06509*%
%ADD75R,0.02572X0.06509*%
%ADD76R,0.05918X0.06902*%
%ADD77R,0.03359X0.07690*%
%ADD78O,0.05131X0.07296*%
%ADD79C,0.06600*%
%ADD80C,0.11800*%
%ADD81C,0.08675*%
%ADD82C,0.10300*%
%ADD83C,0.04600*%
%ADD84C,0.05800*%
%ADD85C,0.08674*%
%ADD86C,0.04400*%
%ADD87C,0.09658*%
D22*
X319020Y14997D02*
D03*
X290280D02*
D03*
D48*
X428500Y268000D02*
D03*
Y258000D02*
D03*
Y248000D02*
D03*
Y238000D02*
D03*
Y228000D02*
D03*
Y218000D02*
D03*
Y208000D02*
D03*
Y198000D02*
D03*
Y188000D02*
D03*
X312500Y268000D02*
D03*
Y188000D02*
D03*
X519000Y246000D02*
D03*
Y236000D02*
D03*
Y226000D02*
D03*
Y216000D02*
D03*
X589000Y256000D02*
D03*
Y246000D02*
D03*
Y236000D02*
D03*
Y226000D02*
D03*
Y216000D02*
D03*
Y206000D02*
D03*
X584000Y273500D02*
D03*
Y188500D02*
D03*
X524000Y273500D02*
D03*
Y188500D02*
D03*
D68*
X179778Y301812D02*
D03*
X181746D02*
D03*
X183715D02*
D03*
X185684D02*
D03*
X187652D02*
D03*
X189620D02*
D03*
X191589D02*
D03*
X193558D02*
D03*
X195526D02*
D03*
X197494D02*
D03*
X199463D02*
D03*
X201431D02*
D03*
X203400D02*
D03*
X205368D02*
D03*
X207337D02*
D03*
X209306D02*
D03*
X211274D02*
D03*
X213243D02*
D03*
X215211D02*
D03*
X217179D02*
D03*
X219148D02*
D03*
X221116D02*
D03*
X223085D02*
D03*
X225054D02*
D03*
X227022D02*
D03*
Y240788D02*
D03*
X225054D02*
D03*
X223085D02*
D03*
X221116D02*
D03*
X219148D02*
D03*
X217179D02*
D03*
X215211D02*
D03*
X213243D02*
D03*
X211274D02*
D03*
X209306D02*
D03*
X207337D02*
D03*
X205368D02*
D03*
X203400D02*
D03*
X201431D02*
D03*
X199463D02*
D03*
X197494D02*
D03*
X195526D02*
D03*
X193558D02*
D03*
X191589D02*
D03*
X189620D02*
D03*
X187652D02*
D03*
X185684D02*
D03*
X183715D02*
D03*
X181746D02*
D03*
X179778D02*
D03*
D69*
X233912Y294922D02*
D03*
Y292953D02*
D03*
Y290985D02*
D03*
Y289017D02*
D03*
Y287048D02*
D03*
Y285080D02*
D03*
Y283111D02*
D03*
Y281142D02*
D03*
Y279174D02*
D03*
Y277205D02*
D03*
Y275237D02*
D03*
Y273269D02*
D03*
Y271300D02*
D03*
Y269332D02*
D03*
Y267363D02*
D03*
Y265394D02*
D03*
Y263426D02*
D03*
Y261457D02*
D03*
Y259489D02*
D03*
Y257521D02*
D03*
Y255552D02*
D03*
Y253584D02*
D03*
Y251615D02*
D03*
Y249646D02*
D03*
Y247678D02*
D03*
X172888D02*
D03*
Y249646D02*
D03*
Y251615D02*
D03*
Y253584D02*
D03*
Y255552D02*
D03*
Y257521D02*
D03*
Y259489D02*
D03*
Y261457D02*
D03*
Y263426D02*
D03*
Y265394D02*
D03*
Y267363D02*
D03*
Y269332D02*
D03*
Y271300D02*
D03*
Y273269D02*
D03*
Y275237D02*
D03*
Y277205D02*
D03*
Y279174D02*
D03*
Y281142D02*
D03*
Y283111D02*
D03*
Y285080D02*
D03*
Y287048D02*
D03*
Y289017D02*
D03*
Y290985D02*
D03*
Y292953D02*
D03*
Y294922D02*
D03*
D70*
X622435Y344933D02*
D03*
X612199D02*
D03*
D71*
X180640Y364436D02*
D03*
X173160D02*
D03*
Y354200D02*
D03*
X176900D02*
D03*
X180640D02*
D03*
D72*
X613332Y335232D02*
D03*
X621332D02*
D03*
X130000Y395000D02*
D03*
X138000D02*
D03*
X324650Y375550D02*
D03*
X316650D02*
D03*
X355900Y376750D02*
D03*
X363900D02*
D03*
X424500Y375000D02*
D03*
X432500D02*
D03*
X179600Y315300D02*
D03*
X187600D02*
D03*
D73*
X222800Y221800D02*
D03*
Y229800D02*
D03*
X452950Y362700D02*
D03*
Y370700D02*
D03*
X403650Y363350D02*
D03*
Y371350D02*
D03*
X452950Y378700D02*
D03*
Y386700D02*
D03*
X403650Y388850D02*
D03*
Y380850D02*
D03*
X367550Y325450D02*
D03*
Y317450D02*
D03*
D74*
X509846Y352150D02*
D03*
X512405D02*
D03*
X514964D02*
D03*
X517523D02*
D03*
X520082D02*
D03*
X522641D02*
D03*
X525200D02*
D03*
X527759D02*
D03*
X530318D02*
D03*
X532877D02*
D03*
X509846Y375378D02*
D03*
X512405D02*
D03*
X514964D02*
D03*
X517523D02*
D03*
X520082D02*
D03*
X522641D02*
D03*
X525200D02*
D03*
X527759D02*
D03*
X530318D02*
D03*
D75*
X532877D02*
D03*
D76*
X125784Y376799D02*
D03*
Y345500D02*
D03*
X143500D02*
D03*
Y376799D02*
D03*
D77*
X192950Y165750D02*
D03*
X187950D02*
D03*
X182950D02*
D03*
X177950D02*
D03*
X172950D02*
D03*
X167950D02*
D03*
X162950D02*
D03*
X157950D02*
D03*
Y187797D02*
D03*
X162950D02*
D03*
X167950D02*
D03*
X172950D02*
D03*
X177950D02*
D03*
X182950D02*
D03*
X187950D02*
D03*
X192950D02*
D03*
D78*
X298351Y35962D02*
D03*
X304650D02*
D03*
X310949D02*
D03*
X301500Y29072D02*
D03*
X307800D02*
D03*
D79*
X652000Y133500D02*
D03*
Y143500D02*
D03*
Y153500D02*
D03*
X662000Y133500D02*
D03*
Y143500D02*
D03*
Y153500D02*
D03*
X48000D02*
D03*
Y143500D02*
D03*
Y133500D02*
D03*
X38000Y153500D02*
D03*
Y143500D02*
D03*
Y133500D02*
D03*
X226500Y437000D02*
D03*
X236500D02*
D03*
X272500D02*
D03*
X282500D02*
D03*
X88500D02*
D03*
X98500D02*
D03*
X42500D02*
D03*
X52500D02*
D03*
X38000Y315500D02*
D03*
Y305500D02*
D03*
Y295500D02*
D03*
Y285500D02*
D03*
Y275500D02*
D03*
X48000Y234500D02*
D03*
Y224500D02*
D03*
X38000Y234500D02*
D03*
Y224500D02*
D03*
Y194500D02*
D03*
Y204500D02*
D03*
Y214500D02*
D03*
X48000Y194500D02*
D03*
Y204500D02*
D03*
Y214500D02*
D03*
X662000Y275500D02*
D03*
Y285500D02*
D03*
Y295500D02*
D03*
Y305500D02*
D03*
Y315500D02*
D03*
X652000Y194500D02*
D03*
Y204500D02*
D03*
X662000Y194500D02*
D03*
Y204500D02*
D03*
Y234500D02*
D03*
Y224500D02*
D03*
Y214500D02*
D03*
X652000Y234500D02*
D03*
Y224500D02*
D03*
Y214500D02*
D03*
X134500Y437000D02*
D03*
X144500D02*
D03*
X180500D02*
D03*
X190500D02*
D03*
D80*
X16250Y18750D02*
D03*
X678750D02*
D03*
X16250Y456250D02*
D03*
X678750D02*
D03*
D81*
X506500Y17200D02*
D03*
X536500D02*
D03*
X566500D02*
D03*
X521500Y127200D02*
D03*
X536500D02*
D03*
X371750Y17200D02*
D03*
X401750D02*
D03*
X431750D02*
D03*
X386750Y127200D02*
D03*
X401750D02*
D03*
D82*
X506500D02*
D03*
X566500D02*
D03*
X371750D02*
D03*
X431750D02*
D03*
D83*
X409250Y437050D02*
D03*
Y432050D02*
D03*
Y427050D02*
D03*
X439250Y437050D02*
D03*
Y432050D02*
D03*
Y427050D02*
D03*
X469250Y437050D02*
D03*
Y432050D02*
D03*
Y427050D02*
D03*
X499250Y437050D02*
D03*
Y432050D02*
D03*
Y427050D02*
D03*
X326300D02*
D03*
Y417050D02*
D03*
Y422050D02*
D03*
Y432050D02*
D03*
Y437050D02*
D03*
X321300D02*
D03*
Y432050D02*
D03*
Y422050D02*
D03*
Y417050D02*
D03*
Y427050D02*
D03*
X671850Y357500D02*
D03*
X666850D02*
D03*
X661850D02*
D03*
X368800Y427050D02*
D03*
Y417050D02*
D03*
Y422050D02*
D03*
Y432050D02*
D03*
Y437050D02*
D03*
X363800D02*
D03*
Y432050D02*
D03*
Y422050D02*
D03*
Y417050D02*
D03*
Y427050D02*
D03*
X28150Y76250D02*
D03*
X33150D02*
D03*
X38150D02*
D03*
X28150Y46250D02*
D03*
X33150D02*
D03*
X38150D02*
D03*
X661650Y76250D02*
D03*
X656650D02*
D03*
X651650D02*
D03*
X661650Y46250D02*
D03*
X656650D02*
D03*
X651650D02*
D03*
X566750Y437050D02*
D03*
Y427050D02*
D03*
Y422050D02*
D03*
Y432050D02*
D03*
X596750Y437050D02*
D03*
Y427050D02*
D03*
Y422050D02*
D03*
Y432050D02*
D03*
X626750Y437050D02*
D03*
Y427050D02*
D03*
Y422050D02*
D03*
Y432050D02*
D03*
X656750Y437050D02*
D03*
Y427050D02*
D03*
Y422050D02*
D03*
Y432050D02*
D03*
X28150Y357500D02*
D03*
X33150D02*
D03*
X43150D02*
D03*
X53150D02*
D03*
X48150D02*
D03*
X38150D02*
D03*
X536750Y437050D02*
D03*
Y432050D02*
D03*
Y427050D02*
D03*
D84*
X409250Y447250D02*
D03*
Y416850D02*
D03*
X439250Y447250D02*
D03*
Y416850D02*
D03*
X469250Y447250D02*
D03*
Y416850D02*
D03*
X499250Y447250D02*
D03*
Y416850D02*
D03*
X323800Y447250D02*
D03*
Y406850D02*
D03*
X682050Y357500D02*
D03*
X651650D02*
D03*
X366300Y447250D02*
D03*
Y406850D02*
D03*
X17950Y76250D02*
D03*
X48350D02*
D03*
X17950Y46250D02*
D03*
X48350D02*
D03*
X671850Y76250D02*
D03*
X641450D02*
D03*
X671850Y46250D02*
D03*
X641450D02*
D03*
X566750Y447250D02*
D03*
Y411850D02*
D03*
X596750Y447250D02*
D03*
Y411850D02*
D03*
X626750Y447250D02*
D03*
Y411850D02*
D03*
X656750Y447250D02*
D03*
Y411850D02*
D03*
X63350Y357500D02*
D03*
X18150D02*
D03*
X536750Y447250D02*
D03*
Y416850D02*
D03*
X331850Y212450D02*
D03*
X349050Y265100D02*
D03*
X347500Y307800D02*
D03*
X357900Y325450D02*
D03*
X342750Y346100D02*
D03*
X312750Y230100D02*
D03*
X444350Y218650D02*
D03*
Y247200D02*
D03*
D85*
X227000Y106000D02*
D03*
Y119400D02*
D03*
X174000D02*
D03*
Y106000D02*
D03*
D86*
X220150Y386900D02*
D03*
Y391900D02*
D03*
X225150Y386900D02*
D03*
Y391900D02*
D03*
X230150Y386900D02*
D03*
Y391900D02*
D03*
X235150Y386900D02*
D03*
Y391900D02*
D03*
X240150Y386900D02*
D03*
Y391900D02*
D03*
D87*
X160000Y46500D02*
D03*
X143504D02*
D03*
X248250D02*
D03*
X231754D02*
D03*
M02*
