G04 Layer_Physical_Order=1*
G04 Layer_Color=255*
%FSLAX25Y25*%
%MOIN*%
G70*
G01*
G75*
%ADD10R,0.01181X0.04724*%
%ADD11R,0.04724X0.01181*%
%ADD12R,0.07126X0.05197*%
%ADD13R,0.02362X0.04331*%
%ADD14R,0.04000X0.05000*%
%ADD15R,0.05000X0.04000*%
%ADD16O,0.01772X0.05709*%
%ADD17R,0.01772X0.05709*%
%ADD18R,0.05118X0.06102*%
%ADD19R,0.02559X0.06890*%
%ADD20C,0.01000*%
%ADD21O,0.04331X0.06496*%
%ADD22O,0.06693X0.10630*%
%ADD23C,0.06000*%
%ADD24C,0.11000*%
%ADD25C,0.07875*%
%ADD26C,0.09500*%
%ADD27C,0.04000*%
%ADD28C,0.05200*%
%ADD29C,0.07874*%
%ADD30C,0.03800*%
%ADD31C,0.08858*%
%ADD32C,0.02000*%
%ADD33C,0.05000*%
D10*
X179778Y301812D02*
D03*
X181746D02*
D03*
X183715D02*
D03*
X185684D02*
D03*
X187652D02*
D03*
X189620D02*
D03*
X191589D02*
D03*
X193558D02*
D03*
X195526D02*
D03*
X197494D02*
D03*
X199463D02*
D03*
X201431D02*
D03*
X203400D02*
D03*
X205368D02*
D03*
X207337D02*
D03*
X209306D02*
D03*
X211274D02*
D03*
X213243D02*
D03*
X215211D02*
D03*
X217179D02*
D03*
X219148D02*
D03*
X221116D02*
D03*
X223085D02*
D03*
X225054D02*
D03*
X227022D02*
D03*
Y240788D02*
D03*
X225054D02*
D03*
X223085D02*
D03*
X221116D02*
D03*
X219148D02*
D03*
X217179D02*
D03*
X215211D02*
D03*
X213243D02*
D03*
X211274D02*
D03*
X209306D02*
D03*
X207337D02*
D03*
X205368D02*
D03*
X203400D02*
D03*
X201431D02*
D03*
X199463D02*
D03*
X197494D02*
D03*
X195526D02*
D03*
X193558D02*
D03*
X191589D02*
D03*
X189620D02*
D03*
X187652D02*
D03*
X185684D02*
D03*
X183715D02*
D03*
X181746D02*
D03*
X179778D02*
D03*
D11*
X233912Y294922D02*
D03*
Y292953D02*
D03*
Y290985D02*
D03*
Y289017D02*
D03*
Y287048D02*
D03*
Y285080D02*
D03*
Y283111D02*
D03*
Y281142D02*
D03*
Y279174D02*
D03*
Y277205D02*
D03*
Y275237D02*
D03*
Y273269D02*
D03*
Y271300D02*
D03*
Y269332D02*
D03*
Y267363D02*
D03*
Y265394D02*
D03*
Y263426D02*
D03*
Y261457D02*
D03*
Y259489D02*
D03*
Y257521D02*
D03*
Y255552D02*
D03*
Y253584D02*
D03*
Y251615D02*
D03*
Y249646D02*
D03*
Y247678D02*
D03*
X172888D02*
D03*
Y249646D02*
D03*
Y251615D02*
D03*
Y253584D02*
D03*
Y255552D02*
D03*
Y257521D02*
D03*
Y259489D02*
D03*
Y261457D02*
D03*
Y263426D02*
D03*
Y265394D02*
D03*
Y267363D02*
D03*
Y269332D02*
D03*
Y271300D02*
D03*
Y273269D02*
D03*
Y275237D02*
D03*
Y277205D02*
D03*
Y279174D02*
D03*
Y281142D02*
D03*
Y283111D02*
D03*
Y285080D02*
D03*
Y287048D02*
D03*
Y289017D02*
D03*
Y290985D02*
D03*
Y292953D02*
D03*
Y294922D02*
D03*
D12*
X622435Y344933D02*
D03*
X612199D02*
D03*
D13*
X180640Y364436D02*
D03*
X173160D02*
D03*
Y354200D02*
D03*
X176900D02*
D03*
X180640D02*
D03*
D14*
X613332Y335232D02*
D03*
X621332D02*
D03*
X130000Y395000D02*
D03*
X138000D02*
D03*
X324650Y375550D02*
D03*
X316650D02*
D03*
X355900Y376750D02*
D03*
X363900D02*
D03*
X424500Y375000D02*
D03*
X432500D02*
D03*
X179600Y315300D02*
D03*
X187600D02*
D03*
D15*
X222800Y221800D02*
D03*
Y229800D02*
D03*
X452950Y362700D02*
D03*
Y370700D02*
D03*
X403650Y363350D02*
D03*
Y371350D02*
D03*
X452950Y378700D02*
D03*
Y386700D02*
D03*
X403650Y388850D02*
D03*
Y380850D02*
D03*
X367550Y325450D02*
D03*
Y317450D02*
D03*
D16*
X509846Y352150D02*
D03*
X512405D02*
D03*
X514964D02*
D03*
X517523D02*
D03*
X520082D02*
D03*
X522641D02*
D03*
X525200D02*
D03*
X527759D02*
D03*
X530318D02*
D03*
X532877D02*
D03*
X509846Y375378D02*
D03*
X512405D02*
D03*
X514964D02*
D03*
X517523D02*
D03*
X520082D02*
D03*
X522641D02*
D03*
X525200D02*
D03*
X527759D02*
D03*
X530318D02*
D03*
D17*
X532877D02*
D03*
D18*
X125784Y376799D02*
D03*
Y345500D02*
D03*
X143500D02*
D03*
Y376799D02*
D03*
D19*
X192950Y165750D02*
D03*
X187950D02*
D03*
X182950D02*
D03*
X177950D02*
D03*
X172950D02*
D03*
X167950D02*
D03*
X162950D02*
D03*
X157950D02*
D03*
Y187797D02*
D03*
X162950D02*
D03*
X167950D02*
D03*
X172950D02*
D03*
X177950D02*
D03*
X182950D02*
D03*
X187950D02*
D03*
X192950D02*
D03*
D20*
X225054Y301812D02*
Y386900D01*
X154000Y273300D02*
X154050Y273250D01*
X328600Y221400D02*
X425100D01*
X276000Y274000D02*
X328600Y221400D01*
X233912Y277205D02*
X386856D01*
X284100Y271200D02*
X295100D01*
X244143Y281142D02*
X245150Y282150D01*
X233912Y281142D02*
X244143D01*
X245150Y282150D02*
X252000D01*
X50463Y267363D02*
X172888D01*
X325600Y238000D02*
X428500D01*
X296200Y267400D02*
X325600Y238000D01*
X289900Y264100D02*
X291750D01*
X327850Y228000D01*
X428500D01*
X425100Y221400D02*
X428500Y218000D01*
X452850Y378600D02*
X452950Y378700D01*
X447650Y378600D02*
X452850D01*
X409150Y380850D02*
X409200Y380800D01*
X403650Y380850D02*
X409150D01*
X536700Y427050D02*
X536750D01*
X386856Y277205D02*
X536700Y427050D01*
X452950Y386700D02*
Y391700D01*
Y370700D02*
Y378700D01*
Y391700D02*
X453450Y392200D01*
X452850Y357200D02*
Y362600D01*
X452950Y362700D01*
X403650Y388850D02*
Y394550D01*
Y356350D02*
Y363350D01*
Y371350D02*
Y380850D01*
Y363350D02*
X404650Y362350D01*
X207337Y202863D02*
X250500Y159700D01*
X207337Y202863D02*
Y240788D01*
X213243Y207142D02*
X256100Y164285D01*
X213243Y207142D02*
Y240788D01*
X211274Y202326D02*
Y240788D01*
X42100Y251300D02*
X54226Y263426D01*
X44000Y249600D02*
X56326Y261926D01*
X26100Y238900D02*
X52595Y265394D01*
X22900Y239800D02*
X50463Y267363D01*
X71600Y259600D02*
X72100Y260100D01*
X52600Y279200D02*
X52626Y279174D01*
X38000Y275500D02*
X43950Y281450D01*
X154050Y273250D02*
X161532D01*
X161582Y273300D01*
X195526Y223626D02*
Y240788D01*
X193558Y226157D02*
Y240788D01*
X61200Y252500D02*
X68700Y245000D01*
X61100Y259500D02*
X63200D01*
X44000Y218500D02*
Y249600D01*
X42100Y200400D02*
Y251300D01*
X26100Y226400D02*
Y238900D01*
X22900Y209600D02*
Y239800D01*
X63200Y259500D02*
X70500Y252200D01*
X133500D01*
X138022Y247678D01*
X172888D01*
X131600Y248500D02*
X139312Y240788D01*
X68800Y248500D02*
X131600D01*
X61100Y256200D02*
X68800Y248500D01*
X68700Y245000D02*
X130000D01*
X55000Y242000D02*
X128200D01*
X53400Y240400D02*
X55000Y242000D01*
X181000Y235500D02*
X181746Y236246D01*
X139312Y240788D02*
X179778D01*
X48000Y224500D02*
X53400Y229900D01*
Y240400D01*
X44000Y218500D02*
X48000Y214500D01*
X42100Y200400D02*
X48000Y194500D01*
X26100Y226400D02*
X38000Y214500D01*
X22900Y209600D02*
X38000Y194500D01*
X172809Y257600D02*
X172888Y257521D01*
X153900Y270700D02*
X154500Y271300D01*
X132800Y295000D02*
X154100D01*
X96400Y331400D02*
X132800Y295000D01*
X54250Y331400D02*
X96400D01*
X28150Y357500D02*
X54250Y331400D01*
X135400Y297100D02*
X155700D01*
X97800Y334700D02*
X135400Y297100D01*
X55950Y334700D02*
X97800D01*
X163800Y289000D02*
X168300D01*
X155700Y297100D02*
X163800Y289000D01*
X33150Y357500D02*
X55950Y334700D01*
X157300Y299700D02*
X166015Y290985D01*
X136100Y299700D02*
X157300D01*
X99000Y336800D02*
X136100Y299700D01*
X162052Y287048D02*
X172888D01*
X166015Y290985D02*
X172888D01*
X168300Y289000D02*
X168316Y289017D01*
X58850Y336800D02*
X99000D01*
X38150Y357500D02*
X58850Y336800D01*
X136400Y303500D02*
X156400D01*
X100200Y339700D02*
X136400Y303500D01*
X60950Y339700D02*
X100200D01*
X43150Y357500D02*
X60950Y339700D01*
X227515Y290985D02*
X233912D01*
X227500Y291000D02*
X227515Y290985D01*
X233958Y293000D02*
X239000D01*
X125784Y376799D02*
X130000Y381016D01*
Y395000D01*
X181746Y236246D02*
Y240788D01*
X183715Y236285D02*
Y240788D01*
X225000Y240735D02*
X225054Y240788D01*
X227022D02*
X228500Y239310D01*
Y236000D02*
Y239310D01*
X233912Y292953D02*
X233958Y293000D01*
X236922Y294922D02*
X239000Y297000D01*
X233912Y294922D02*
X236922D01*
X178500Y303090D02*
X179778Y301812D01*
X225000Y236000D02*
Y240735D01*
X183715Y236285D02*
X184500Y235500D01*
X193500Y301869D02*
X193558Y301812D01*
X173160Y354200D02*
Y356060D01*
X176900Y359800D01*
X180640Y354200D02*
Y356060D01*
X176900Y359800D02*
X180640Y356060D01*
X176900Y348900D02*
Y354200D01*
X181746Y301812D02*
Y306254D01*
X178500Y303090D02*
Y306500D01*
X168316Y289017D02*
X172888D01*
X124300Y395100D02*
X129900D01*
X130000Y395000D01*
X172857Y273300D02*
X172888Y273269D01*
X173160Y364436D02*
Y370040D01*
X173100Y370100D02*
X173160Y370040D01*
X256200Y167000D02*
X616400D01*
X251700Y161900D02*
X626300D01*
X250500Y159700D02*
X631500D01*
X154100Y295000D02*
X162052Y287048D01*
X52626Y279174D02*
X165987D01*
X56326Y261926D02*
X168853D01*
X169321Y261457D01*
X172888D01*
X54226Y263426D02*
X172888D01*
X52595Y265394D02*
X172888D01*
X154500Y271300D02*
X172888D01*
X172662Y279400D02*
X172888Y279174D01*
X165987D02*
X166213Y279400D01*
X172662D01*
X161582Y273300D02*
X172857D01*
X172888Y277205D02*
X178006D01*
X178900Y278100D01*
X172888Y275237D02*
X178363D01*
X178800Y274800D01*
X43950Y281450D02*
X172581D01*
X172888Y281142D01*
X167100Y284500D02*
X167680Y285080D01*
X172888D01*
Y257521D02*
X178920D01*
X179300Y257900D01*
X178384Y253584D02*
X179300Y254500D01*
X172888Y253584D02*
X178384D01*
X172888Y255552D02*
X178248D01*
X179300Y254500D01*
X215211Y207989D02*
X256200Y167000D01*
X215211Y207989D02*
Y240788D01*
X172500Y315300D02*
X179600D01*
X187600D02*
X191589Y311311D01*
Y301812D02*
Y311311D01*
X211274Y202326D02*
X251700Y161900D01*
X424500Y374000D02*
Y375000D01*
X419300Y368800D02*
X424500Y374000D01*
X432500Y375000D02*
X432600Y374900D01*
Y369200D02*
Y374900D01*
X324100Y370500D02*
Y375000D01*
X324650Y375550D01*
X317750Y370550D02*
Y374450D01*
X316650Y375550D02*
X317750Y374450D01*
X355900Y373500D02*
X358650Y370750D01*
X355900Y373500D02*
Y376750D01*
X363750Y370650D02*
X363900Y370800D01*
Y376750D01*
X164978Y294922D02*
X172888D01*
X156400Y303500D02*
X164978Y294922D01*
X668900Y366900D02*
X681500Y379500D01*
Y386150D01*
X605550Y356450D02*
X609850D01*
X612199Y354101D01*
Y344933D02*
Y354101D01*
X613332Y335232D02*
Y338418D01*
X612199Y339551D02*
X613332Y338418D01*
X612199Y339551D02*
Y344933D01*
X621332Y335232D02*
Y338032D01*
X622435Y339135D01*
Y344933D01*
X621332Y335232D02*
X632664Y323900D01*
X646450D01*
X243300Y292100D02*
Y383750D01*
X240150Y386900D02*
X243300Y383750D01*
X227022Y301812D02*
X235150Y309940D01*
Y386900D01*
X201431Y335231D02*
X201450Y335250D01*
X201431Y301812D02*
Y335231D01*
X221650Y313800D02*
X223085Y312365D01*
Y301812D02*
Y312365D01*
X221116Y301812D02*
Y308383D01*
X215750Y307800D02*
X217450D01*
X219148Y306102D01*
Y301812D02*
Y306102D01*
X220800Y231800D02*
X222800Y229800D01*
X222707Y238012D02*
Y240410D01*
X223085Y240788D01*
X220800Y231800D02*
Y236105D01*
X222707Y238012D01*
X185700Y240805D02*
Y246600D01*
X185684Y240788D02*
X185700Y240805D01*
X341750Y331050D02*
X367550D01*
Y325450D02*
Y331050D01*
X361900Y317450D02*
X367550D01*
X242261Y283111D02*
X244050Y284900D01*
X248300D01*
X233912Y289017D02*
X240216D01*
X243300Y292100D01*
X233912Y287048D02*
X240369D01*
X242471Y289150D01*
X260750D01*
X233912Y285080D02*
X241429D01*
X243250Y286900D01*
X253850D01*
X233912Y283111D02*
X242261D01*
X383950Y279250D02*
X536750Y432050D01*
X233912Y279174D02*
X233988Y279250D01*
X383950D01*
X295100Y271200D02*
X298900Y275000D01*
X421500D01*
X428500Y268000D01*
X193558Y301812D02*
Y313643D01*
X193550Y313650D02*
X193558Y313643D01*
X195526Y301812D02*
Y305726D01*
X218700Y310800D02*
X221116Y308383D01*
X196400Y306600D02*
Y319350D01*
X195526Y305726D02*
X196400Y306600D01*
X77400Y257700D02*
X158600D01*
X166654Y249646D01*
X172888D01*
X72100Y260100D02*
X158600D01*
X167085Y251615D01*
X172888D01*
X169439Y259489D02*
X172888D01*
X168300Y258350D02*
X169439Y259489D01*
X168300Y256500D02*
Y258350D01*
Y256500D02*
X169248Y255552D01*
X172888D01*
X166025Y309175D02*
X195550Y279650D01*
X172888Y269332D02*
X191832D01*
X195550Y273050D01*
Y279650D01*
X143500Y376799D02*
X166025Y354274D01*
Y309175D02*
Y354274D01*
X153601Y386900D02*
X220150D01*
X143500Y376799D02*
X153601Y386900D01*
X390400Y317850D02*
Y377750D01*
X385950Y317500D02*
Y381600D01*
X530318Y352150D02*
X530350Y352182D01*
X527759Y337441D02*
Y352150D01*
X530318Y338882D02*
Y352150D01*
X561650Y249200D02*
X574850Y236000D01*
X589000D01*
Y246000D02*
X593700D01*
X555950Y250300D02*
X575200Y231050D01*
X555950Y250300D02*
Y309250D01*
X527759Y337441D02*
X555950Y309250D01*
X593700Y246000D02*
X596450Y243250D01*
X575200Y231050D02*
X592850D01*
X596450Y234650D01*
Y243250D01*
X530318Y338882D02*
X561650Y307550D01*
Y249200D02*
Y307550D01*
X530350Y352182D02*
Y358200D01*
X527750Y352159D02*
Y361800D01*
Y352159D02*
X527759Y352150D01*
X522641D02*
Y360491D01*
X526500Y364350D01*
X520082Y352150D02*
Y360932D01*
X525300Y366150D01*
X514964Y352150D02*
Y360414D01*
X522650Y368100D01*
X512405Y352150D02*
Y361405D01*
X521150Y370150D01*
X635700Y366900D02*
X668900D01*
X532999Y375500D02*
X541600D01*
X532877Y375378D02*
X532999Y375500D01*
X532877Y352150D02*
X541500D01*
X138000Y382299D02*
X143500Y376799D01*
X138000Y382299D02*
Y395000D01*
X525300Y366150D02*
X554500D01*
X568850Y380500D01*
X522650Y368100D02*
X553500D01*
X567950Y382550D01*
X521150Y370150D02*
X552600D01*
X567200Y384750D01*
X570400Y377800D02*
X596250D01*
X556950Y364350D02*
X570400Y377800D01*
X526500Y364350D02*
X556950D01*
X568850Y380500D02*
X606050D01*
X567950Y382550D02*
X617450D01*
X567200Y384750D02*
X611850D01*
X649150Y422050D01*
X656750D01*
X617450Y382550D02*
X652450Y417550D01*
X659800D01*
X662700Y420450D01*
Y423750D01*
X659400Y427050D02*
X662700Y423750D01*
X656750Y427050D02*
X659400D01*
X522641Y375378D02*
Y378841D01*
X596000Y422050D02*
X596750D01*
X553800Y384100D02*
X596750Y427050D01*
X523850Y384100D02*
X553800D01*
X520082Y380332D02*
X523850Y384100D01*
X520082Y375378D02*
Y380332D01*
X514964Y375378D02*
Y379864D01*
X521550Y386450D01*
X531150D01*
X566750Y422050D01*
X529100Y389400D02*
X566750Y427050D01*
X519850Y389400D02*
X529100D01*
X512405Y381955D02*
X519850Y389400D01*
X512405Y375378D02*
Y381955D01*
X522641Y378841D02*
X525650Y381850D01*
X555800D01*
X596000Y422050D01*
X527759Y375378D02*
Y378659D01*
X528200Y379100D01*
X529700D01*
X530318Y378482D01*
X530886Y379050D01*
X532400D01*
X532877Y378573D01*
Y375378D02*
Y378573D01*
X505600Y375400D02*
X509824D01*
X509846Y375378D01*
X631500Y159700D02*
X639150Y167350D01*
Y191650D01*
X652000Y204500D01*
X626300Y161900D02*
X635800Y171400D01*
Y208300D01*
X652000Y224500D01*
X256100Y164285D02*
X622735D01*
X628550Y170100D01*
Y170500D01*
X616400Y167000D02*
X629700Y180300D01*
Y212200D01*
X652000Y234500D01*
X656000Y240500D02*
X662000Y234500D01*
X648000Y240500D02*
X656000D01*
X623950Y216450D02*
X648000Y240500D01*
X623950Y183850D02*
Y216450D01*
X611250Y171150D02*
X623950Y183850D01*
X229996Y249646D02*
X233912D01*
X228450Y248100D02*
X229996Y249646D01*
X233912Y263426D02*
X243174D01*
X249950Y256650D01*
Y242350D02*
Y256650D01*
Y242350D02*
X254250Y238050D01*
X266650D01*
X233912Y265394D02*
X244305D01*
X258050Y251650D01*
Y241450D02*
Y251650D01*
X609500Y174750D02*
X619500Y184750D01*
X233912Y267363D02*
X247287D01*
X274900Y239750D01*
Y226350D02*
Y239750D01*
X233912Y269332D02*
X248719D01*
X276950Y241100D01*
Y229600D02*
Y241100D01*
X233912Y271300D02*
X249650D01*
X278900Y242050D01*
Y232800D02*
Y242050D01*
X233912Y273269D02*
X250532D01*
X280850Y242950D01*
Y236250D02*
Y242950D01*
X228450Y245300D02*
Y248100D01*
Y245300D02*
X302600Y171150D01*
X611250D01*
X233912Y243788D02*
Y247678D01*
Y243788D02*
X302950Y174750D01*
X609500D01*
X274900Y226350D02*
X279650Y221600D01*
X276950Y229600D02*
X282400Y224150D01*
X278900Y232800D02*
X285050Y226650D01*
X280850Y236250D02*
X287850Y229250D01*
X285050Y198750D02*
Y226650D01*
X637800Y295500D02*
X662000D01*
X607700Y265400D02*
X637800Y295500D01*
X607700Y190400D02*
Y265400D01*
X285050Y198750D02*
X306600Y177200D01*
X594500D01*
X607700Y190400D01*
X222800Y215250D02*
Y221800D01*
X192950Y187797D02*
X193097D01*
X205368Y200068D01*
Y240788D01*
X203400Y223800D02*
Y240788D01*
X182950Y203350D02*
X203400Y223800D01*
X182950Y187797D02*
Y203350D01*
X189620Y234821D02*
Y240788D01*
X130000Y245000D02*
X147250Y227750D01*
X182550D01*
X189620Y234821D01*
X191589Y233389D02*
Y240788D01*
X157900Y187847D02*
Y195500D01*
Y187847D02*
X157950Y187797D01*
X167950D02*
Y195500D01*
X177950Y187797D02*
Y195500D01*
X187950Y187797D02*
Y195500D01*
X178000Y175600D02*
X182950Y170650D01*
Y165750D02*
Y170650D01*
X172950Y165750D02*
Y170550D01*
X178000Y175600D01*
X167100D02*
X178000D01*
X162950Y171450D02*
X167100Y175600D01*
X162950Y165750D02*
Y171450D01*
X178000Y175600D02*
X189300D01*
X192950Y171950D01*
Y165750D02*
Y171950D01*
X187950Y159000D02*
Y165750D01*
X177950Y159000D02*
Y165750D01*
X167950Y159000D02*
Y165750D01*
X157900Y159000D02*
Y165700D01*
X157950Y165750D01*
X128200Y242000D02*
X145150Y225050D01*
X183250D01*
X191589Y233389D01*
X162950Y187797D02*
Y211200D01*
X172950Y187797D02*
Y216250D01*
X162950Y211200D02*
X174100Y222350D01*
X189750D01*
X193558Y226157D01*
X172950Y216250D02*
X176550Y219850D01*
X191750D01*
X195526Y223626D01*
X357900Y325450D02*
X367550D01*
D21*
X298351Y35962D02*
D03*
X304650D02*
D03*
X310949D02*
D03*
X301500Y29072D02*
D03*
X307800D02*
D03*
D22*
X319020Y14997D02*
D03*
X290280D02*
D03*
D23*
X652000Y133500D02*
D03*
Y143500D02*
D03*
Y153500D02*
D03*
X662000Y133500D02*
D03*
Y143500D02*
D03*
Y153500D02*
D03*
X48000D02*
D03*
Y143500D02*
D03*
Y133500D02*
D03*
X38000Y153500D02*
D03*
Y143500D02*
D03*
Y133500D02*
D03*
X226500Y437000D02*
D03*
X236500D02*
D03*
X272500D02*
D03*
X282500D02*
D03*
X88500D02*
D03*
X98500D02*
D03*
X42500D02*
D03*
X52500D02*
D03*
X428500Y268000D02*
D03*
Y258000D02*
D03*
Y248000D02*
D03*
Y238000D02*
D03*
Y228000D02*
D03*
Y218000D02*
D03*
Y208000D02*
D03*
Y198000D02*
D03*
Y188000D02*
D03*
X312500Y268000D02*
D03*
Y188000D02*
D03*
X519000Y246000D02*
D03*
Y236000D02*
D03*
Y226000D02*
D03*
Y216000D02*
D03*
X589000Y256000D02*
D03*
Y246000D02*
D03*
Y236000D02*
D03*
Y226000D02*
D03*
Y216000D02*
D03*
Y206000D02*
D03*
X584000Y273500D02*
D03*
Y188500D02*
D03*
X524000Y273500D02*
D03*
Y188500D02*
D03*
X38000Y315500D02*
D03*
Y305500D02*
D03*
Y295500D02*
D03*
Y285500D02*
D03*
Y275500D02*
D03*
X48000Y234500D02*
D03*
Y224500D02*
D03*
X38000Y234500D02*
D03*
Y224500D02*
D03*
Y194500D02*
D03*
Y204500D02*
D03*
Y214500D02*
D03*
X48000Y194500D02*
D03*
Y204500D02*
D03*
Y214500D02*
D03*
X662000Y275500D02*
D03*
Y285500D02*
D03*
Y295500D02*
D03*
Y305500D02*
D03*
Y315500D02*
D03*
X652000Y194500D02*
D03*
Y204500D02*
D03*
X662000Y194500D02*
D03*
Y204500D02*
D03*
Y234500D02*
D03*
Y224500D02*
D03*
Y214500D02*
D03*
X652000Y234500D02*
D03*
Y224500D02*
D03*
Y214500D02*
D03*
X134500Y437000D02*
D03*
X144500D02*
D03*
X180500D02*
D03*
X190500D02*
D03*
D24*
X16250Y18750D02*
D03*
X678750D02*
D03*
X16250Y456250D02*
D03*
X678750D02*
D03*
D25*
X506500Y17200D02*
D03*
X536500D02*
D03*
X566500D02*
D03*
X521500Y127200D02*
D03*
X536500D02*
D03*
X371750Y17200D02*
D03*
X401750D02*
D03*
X431750D02*
D03*
X386750Y127200D02*
D03*
X401750D02*
D03*
D26*
X506500D02*
D03*
X566500D02*
D03*
X371750D02*
D03*
X431750D02*
D03*
D27*
X409250Y437050D02*
D03*
Y432050D02*
D03*
Y427050D02*
D03*
X439250Y437050D02*
D03*
Y432050D02*
D03*
Y427050D02*
D03*
X469250Y437050D02*
D03*
Y432050D02*
D03*
Y427050D02*
D03*
X499250Y437050D02*
D03*
Y432050D02*
D03*
Y427050D02*
D03*
X326300D02*
D03*
Y417050D02*
D03*
Y422050D02*
D03*
Y432050D02*
D03*
Y437050D02*
D03*
X321300D02*
D03*
Y432050D02*
D03*
Y422050D02*
D03*
Y417050D02*
D03*
Y427050D02*
D03*
X671850Y357500D02*
D03*
X666850D02*
D03*
X661850D02*
D03*
X368800Y427050D02*
D03*
Y417050D02*
D03*
Y422050D02*
D03*
Y432050D02*
D03*
Y437050D02*
D03*
X363800D02*
D03*
Y432050D02*
D03*
Y422050D02*
D03*
Y417050D02*
D03*
Y427050D02*
D03*
X28150Y76250D02*
D03*
X33150D02*
D03*
X38150D02*
D03*
X28150Y46250D02*
D03*
X33150D02*
D03*
X38150D02*
D03*
X661650Y76250D02*
D03*
X656650D02*
D03*
X651650D02*
D03*
X661650Y46250D02*
D03*
X656650D02*
D03*
X651650D02*
D03*
X566750Y437050D02*
D03*
Y427050D02*
D03*
Y422050D02*
D03*
Y432050D02*
D03*
X596750Y437050D02*
D03*
Y427050D02*
D03*
Y422050D02*
D03*
Y432050D02*
D03*
X626750Y437050D02*
D03*
Y427050D02*
D03*
Y422050D02*
D03*
Y432050D02*
D03*
X656750Y437050D02*
D03*
Y427050D02*
D03*
Y422050D02*
D03*
Y432050D02*
D03*
X28150Y357500D02*
D03*
X33150D02*
D03*
X43150D02*
D03*
X53150D02*
D03*
X48150D02*
D03*
X38150D02*
D03*
X536750Y437050D02*
D03*
Y432050D02*
D03*
Y427050D02*
D03*
D28*
X409250Y447250D02*
D03*
Y416850D02*
D03*
X439250Y447250D02*
D03*
Y416850D02*
D03*
X469250Y447250D02*
D03*
Y416850D02*
D03*
X499250Y447250D02*
D03*
Y416850D02*
D03*
X323800Y447250D02*
D03*
Y406850D02*
D03*
X682050Y357500D02*
D03*
X651650D02*
D03*
X366300Y447250D02*
D03*
Y406850D02*
D03*
X17950Y76250D02*
D03*
X48350D02*
D03*
X17950Y46250D02*
D03*
X48350D02*
D03*
X671850Y76250D02*
D03*
X641450D02*
D03*
X671850Y46250D02*
D03*
X641450D02*
D03*
X566750Y447250D02*
D03*
Y411850D02*
D03*
X596750Y447250D02*
D03*
Y411850D02*
D03*
X626750Y447250D02*
D03*
Y411850D02*
D03*
X656750Y447250D02*
D03*
Y411850D02*
D03*
X63350Y357500D02*
D03*
X18150D02*
D03*
X536750Y447250D02*
D03*
Y416850D02*
D03*
D29*
X227000Y106000D02*
D03*
Y119400D02*
D03*
X174000D02*
D03*
Y106000D02*
D03*
D30*
X220150Y386900D02*
D03*
Y391900D02*
D03*
X225150Y386900D02*
D03*
Y391900D02*
D03*
X230150Y386900D02*
D03*
Y391900D02*
D03*
X235150Y386900D02*
D03*
Y391900D02*
D03*
X240150Y386900D02*
D03*
Y391900D02*
D03*
D31*
X160000Y46500D02*
D03*
X143504D02*
D03*
X248250D02*
D03*
X231754D02*
D03*
D32*
X276000Y274000D02*
D03*
X284100Y271200D02*
D03*
X252000Y282150D02*
D03*
X248300Y284900D02*
D03*
X253850Y286900D02*
D03*
X260750Y289150D02*
D03*
X289900Y264100D02*
D03*
X296200Y267400D02*
D03*
X394750Y242900D02*
D03*
X379350Y215950D02*
D03*
X371400Y215850D02*
D03*
X395300Y199350D02*
D03*
X395200Y189650D02*
D03*
X447650Y378600D02*
D03*
X409200Y380800D02*
D03*
X77400Y257700D02*
D03*
X71600Y259600D02*
D03*
X52600Y279200D02*
D03*
X61200Y252500D02*
D03*
X61100Y259500D02*
D03*
X181000Y235500D02*
D03*
X61100Y256200D02*
D03*
X153900Y270700D02*
D03*
X154000Y273300D02*
D03*
X429600Y357700D02*
D03*
X490150Y342550D02*
D03*
X129500Y271000D02*
D03*
X227500Y291000D02*
D03*
X394650Y252850D02*
D03*
X380350Y269950D02*
D03*
X372200Y269850D02*
D03*
X673500Y422500D02*
D03*
X684500D02*
D03*
X228500Y236000D02*
D03*
X239000Y293000D02*
D03*
Y297000D02*
D03*
X210000Y160000D02*
D03*
X22500Y415700D02*
D03*
X452850Y357200D02*
D03*
X453450Y392200D02*
D03*
X403650Y356350D02*
D03*
Y394550D02*
D03*
X559450Y351700D02*
D03*
X523150Y342550D02*
D03*
X657500Y375300D02*
D03*
X652000Y388000D02*
D03*
X676500Y400000D02*
D03*
X225000Y236000D02*
D03*
X184500Y235500D02*
D03*
X176900Y348900D02*
D03*
X181746Y306254D02*
D03*
X178500Y306500D02*
D03*
X36050Y389800D02*
D03*
X367000Y359200D02*
D03*
X363750Y370650D02*
D03*
X124300Y395100D02*
D03*
X335450Y364400D02*
D03*
X324100Y370500D02*
D03*
X236650Y396700D02*
D03*
X523650Y302450D02*
D03*
X486950Y302750D02*
D03*
X173100Y370100D02*
D03*
X176900Y359800D02*
D03*
X178900Y278100D02*
D03*
X178800Y274800D02*
D03*
X167100Y284500D02*
D03*
X179300Y254500D02*
D03*
Y257900D02*
D03*
X172500Y315300D02*
D03*
X432600Y369200D02*
D03*
X419300Y368800D02*
D03*
X317750Y370550D02*
D03*
X379800Y364550D02*
D03*
X358650Y370750D02*
D03*
X510850Y423550D02*
D03*
X511600Y432000D02*
D03*
X214700Y277700D02*
D03*
X224950Y396500D02*
D03*
X219000Y360900D02*
D03*
X239250Y360800D02*
D03*
X635700Y366900D02*
D03*
X605550Y356450D02*
D03*
X646450Y323900D02*
D03*
X681500Y386150D02*
D03*
X230150Y351450D02*
D03*
X201450Y335250D02*
D03*
X215750Y307800D02*
D03*
X221650Y313800D02*
D03*
X185700Y246600D02*
D03*
X367550Y331050D02*
D03*
X341750D02*
D03*
X330100Y246600D02*
D03*
X337250Y294550D02*
D03*
X361900Y317450D02*
D03*
X319400Y341000D02*
D03*
X193550Y313650D02*
D03*
X218700Y310800D02*
D03*
X196400Y319350D02*
D03*
X285850Y353750D02*
D03*
X385950Y381600D02*
D03*
X390400Y377750D02*
D03*
X385950Y317500D02*
D03*
X390400Y317850D02*
D03*
X437200Y356250D02*
D03*
X530350Y358200D02*
D03*
X527750Y361800D02*
D03*
X541500Y352150D02*
D03*
X541600Y375500D02*
D03*
X263600Y386900D02*
D03*
X596250Y377800D02*
D03*
X606050Y380500D02*
D03*
X505600Y375400D02*
D03*
X628550Y170500D02*
D03*
X258050Y241450D02*
D03*
X266650Y238050D02*
D03*
X619500Y184750D02*
D03*
X287850Y229250D02*
D03*
X282400Y224150D02*
D03*
X279650Y221600D02*
D03*
X222800Y215250D02*
D03*
X157900Y195500D02*
D03*
X167950D02*
D03*
X177950D02*
D03*
X187950D02*
D03*
X178000Y175600D02*
D03*
X187950Y159000D02*
D03*
X177950D02*
D03*
X167950D02*
D03*
X157900D02*
D03*
X28100Y108850D02*
D03*
X40100Y13300D02*
D03*
X661650Y109700D02*
D03*
X637800Y12600D02*
D03*
X180500Y216100D02*
D03*
D33*
X331850Y212450D02*
D03*
X349050Y265100D02*
D03*
X347500Y307800D02*
D03*
X357900Y325450D02*
D03*
X342750Y346100D02*
D03*
X312750Y230100D02*
D03*
X444350Y218650D02*
D03*
Y247200D02*
D03*
M02*
