M48
;Layer_Color=9474304
;FILE_FORMAT=2:5
INCH,TZ
;TYPE=PLATED
T1F00S00C0.01000
T2F00S00C0.02500
T3F00S00C0.02756
T5F00S00C0.02800
T6F00S00C0.03000
T7F00S00C0.03500
T8F00S00C0.04000
T9F00S00C0.04016
T10F00S00C0.06000
T11F00S00C0.06693
T12F00S00C0.07008
T13F00S00C0.08000
;TYPE=NON_PLATED
T14F00S00C0.09000
T15F00S00C0.10000
T16F00S00C0.11000
%
T01
X40100Y13300
X637800Y12600
X661650Y109700
X628550Y170500
X619500Y184750
X395200Y189650
X395300Y199350
X187950Y195500
X177950
X167950
X157900
Y159000
X167950
X177950
X187950
X210000Y160000
X178000Y175600
X28100Y108850
X52600Y279200
X61100Y259500
Y256200
X61200Y252500
X71600Y259600
X77400Y257700
X129500Y271000
X153900Y270700
X154000Y273300
X167100Y284500
X178900Y278100
X178800Y274800
X179300Y257900
Y254500
X185700Y246600
X184500Y235500
X181000
X180500Y216100
X181746Y306254
X178500Y306500
X172500Y315300
X193550Y313650
X196400Y319350
X201450Y335250
X176900Y348900
Y359800
X219000Y360900
X239250Y360800
X230150Y351450
X221650Y313800
X218700Y310800
X215750Y307800
X227500Y291000
X239000Y293000
Y297000
X248300Y284900
X252000Y282150
X253850Y286900
X260750Y289150
X276000Y274000
X284100Y271200
X289900Y264100
X296200Y267400
X287850Y229250
X282400Y224150
X279650Y221600
X266650Y238050
X258050Y241450
X228500Y236000
X225000
X222800Y215250
X214700Y277700
X337250Y294550
X341750Y331050
X367550
X361900Y317450
X367000Y359200
X335450Y364400
X319400Y341000
X285850Y353750
X330100Y246600
X372200Y269850
X380350Y269950
X394650Y252850
X394750Y242900
X379350Y215950
X371400Y215850
X385950Y317500
X390400Y317850
X403650Y356350
X429600Y357700
X437200Y356250
X452850Y357200
X490150Y342550
X523150
X523650Y302450
X486950Y302750
X379800Y364550
X527750Y361800
X530350Y358200
X541500Y352150
X559450Y351700
X605550Y356450
X635700Y366900
X646450Y323900
X681500Y386150
X684500Y422500
X673500
X676500Y400000
X652000Y388000
X657500Y375300
X606050Y380500
X596250Y377800
X541600Y375500
X505600Y375400
X510850Y423550
X511600Y432000
X453450Y392200
X447650Y378600
X432600Y369200
X419300Y368800
X409200Y380800
X403650Y394550
X390400Y377750
X385950Y381600
X363750Y370650
X358650Y370750
X324100Y370500
X317750Y370550
X263600Y386900
X236650Y396700
X224950Y396500
X173100Y370100
X124300Y395100
X36050Y389800
X22500Y415700
T02
X28150Y46250
X33150
X38150
X651650
X656650
X661650
Y76250
X656650
X651650
X38150
X33150
X28150
Y357500
X33150
X38150
X43150
X48150
X53150
X661850
X666850
X671850
X656750Y422050
Y427050
Y432050
Y437050
X626750
Y432050
Y427050
Y422050
X596750
Y427050
Y432050
Y437050
X566750
Y432050
Y427050
Y422050
X536750Y427050
Y432050
Y437050
X499250
Y432050
Y427050
X469250
Y432050
Y437050
X439250
Y432050
Y427050
X409250
Y432050
Y437050
X368800
Y432050
Y427050
Y422050
Y417050
X363800
Y422050
Y427050
Y432050
Y437050
X326300
Y432050
Y427050
Y422050
Y417050
X321300
Y422050
Y427050
Y432050
Y437050
T03
X301500Y30155
X307800
X310949Y34879
X304650
X298351
T05
X220150Y386900
Y391900
X225150
Y386900
X230150
Y391900
X235150
Y386900
X240150
Y391900
T06
X331850Y212450
X312750Y230100
X349050Y265100
X347500Y307800
X357900Y325450
X342750Y346100
X444350Y247200
Y218650
T07
X17950Y46250
X48350
X641450
X671850
Y76250
X641450
X48350
X17950
X18150Y357500
X63350
X651650
X682050
X656750Y411850
X626750
X596750
X566750
X536750Y416850
Y447250
X566750
X596750
X626750
X656750
X499250
X469250
X439250
X409250
Y416850
X439250
X469250
X499250
X366300Y406850
Y447250
X323800
Y406850
T08
X652000Y133500
Y143500
Y153500
X662000
Y143500
Y133500
Y194500
X652000
Y204500
X662000
X48000
X38000
Y194500
X48000
Y153500
Y143500
Y133500
X38000
Y143500
Y153500
Y214500
Y224500
X48000
Y234500
X38000
X48000Y214500
X38000Y275500
Y285500
Y295500
Y305500
Y315500
X662000
Y305500
Y295500
Y285500
Y275500
Y234500
Y224500
Y214500
X652000
Y224500
Y234500
X282500Y437000
X272500
X236500
X226500
X190500
X180500
X144500
X134500
X98500
X88500
X52500
X42500
T09
X589000Y206000
X428500Y208000
Y198000
Y188000
Y218000
Y228000
Y238000
Y248000
Y258000
Y268000
X519000Y246000
Y236000
Y226000
Y216000
X589000
Y226000
Y236000
Y246000
Y256000
T10
X371750Y17200
X401750
X431750
X506500
X536500
X566500
X536500Y127200
X521500
X401750
X386750
T11
X227000Y106000
Y119400
X174000
Y106000
T12
X143504Y46500
X160000
X231754
X248250
T13
X566500Y127200
X506500
X431750
X371750
T14
X312500Y188000
Y268000
T15
X584000Y188500
X524000
Y273500
X584000
T16
X16250Y18750
X678750
Y456250
X16250
M30
